<?xml version="1.0" standalone="no"?>
<!DOCTYPE svg PUBLIC "-//W3C//DTD SVG 1.1//EN" "http://www.w3.org/Graphics/SVG/1.1/DTD/svg11.dtd" >
<!--
2013-9-30: Created.
-->
<svg>
<metadata>
Created by iconfont
</metadata>
<defs>

<font id="iconfont" horiz-adv-x="1024" >
  <font-face
    font-family="iconfont"
    font-weight="500"
    font-stretch="normal"
    units-per-em="1024"
    ascent="896"
    descent="-128"
  />
    <missing-glyph />
    
    <glyph glyph-name="x" unicode="x" horiz-adv-x="1001"
d="M281 543q-27 -1 -53 -1h-83q-18 0 -36.5 -6t-32.5 -18.5t-23 -32t-9 -45.5v-76h912v41q0 16 -0.5 30t-0.5 18q0 13 -5 29t-17 29.5t-31.5 22.5t-49.5 9h-133v-97h-438v97zM955 310v-52q0 -23 0.5 -52t0.5 -58t-10.5 -47.5t-26 -30t-33 -16t-31.5 -4.5q-14 -1 -29.5 -0.5
t-29.5 0.5h-32l-45 128h-439l-44 -128h-29h-34q-20 0 -45 1q-25 0 -41 9.5t-25.5 23t-13.5 29.5t-4 30v167h911zM163 247q-12 0 -21 -8.5t-9 -21.5t9 -21.5t21 -8.5q13 0 22 8.5t9 21.5t-9 21.5t-22 8.5zM316 123q-8 -26 -14 -48q-5 -19 -10.5 -37t-7.5 -25t-3 -15t1 -14.5
t9.5 -10.5t21.5 -4h37h67h81h80h64h36q23 0 34 12t2 38q-5 13 -9.5 30.5t-9.5 34.5q-5 19 -11 39h-368zM336 498v228q0 11 2.5 23t10 21.5t20.5 15.5t34 6h188q31 0 51.5 -14.5t20.5 -52.5v-227h-327z" />
    

    
    <glyph glyph-name="goumaichenggong" unicode="&#59004;" d="M908.308 641.71c-12.97 8.553-27.507 11.122-42.894 11.113-21.853-0.012-43.707-0.006-65.559-0.016l2.741 16.965 83.742-13.668 11.333 69.427-83.742 13.668 13.668 83.742-69.427 11.333-13.668-83.742-83.742 13.668-11.333-69.427 83.742-13.668-4.574-28.314c-167.204-0.041-334.407-0.038-501.612-0.038-1.559 0-3.142 0.172-4.675-0.034-3.225-0.433-4.432 1.19-5.202 4.071-3.101 11.615-6.432 23.167-9.59 34.767-3.488 12.815-6.906 25.649-10.295 38.489-2.035 7.709-8.677 13.431-16.579 13.47-24.811 0.123-49.622 0.117-74.433-0.014-6.085-0.033-10.82-3.116-14.046-8.245-7.367-11.718 0.587-26.901 14.467-27.138 17.717-0.3 35.444-0.197 53.165-0.042 3.437 0.032 4.878-0.985 5.824-4.37 24.863-88.946 49.845-177.856 74.817-266.771 2.037-7.255 4.138-14.492 6.375-22.317 9.161 9.153 17.648 17.892 26.464 26.29 2.768 2.638 3.131 4.863 2.119 8.442-15.371 54.446-30.578 108.938-45.806 163.424-0.357 1.279-0.551 2.605-0.914 4.337 2.538 0 4.502 0 6.467 0 209.975 0 419.952 0 629.927-0.001 1.701 0 3.406 0.051 5.103-0.032 11.995-0.577 21.842-5.331 29.187-14.992 8.509-11.191 9.436-28.128 1.955-38.191-39.993-53.799-79.99-107.596-120.086-161.321-1.222-1.638-3.376-3.022-5.36-3.582-15.107-4.265-30.272-8.325-45.435-12.391-117.889-31.615-235.782-63.211-353.669-94.833-19.805-5.312-39.65-10.484-59.342-16.19-9.892-2.868-18.334-8.427-23.443-17.761-1.142-2.085-1.536-5.222-0.928-7.516 4.313-16.268 8.563-32.573 13.678-48.595 3.163-9.908 6.914-19.845 11.983-28.883 10.194-18.176 25.341-28.103 47.319-28.045 130.154 0.341 260.306 0.167 390.461 0.171 1.984 0 3.979-0.071 5.953 0.084 8.526 0.666 15.565 7.619 16.16 15.886 0.672 9.317-4.662 17.214-13.287 19.125-2.86 0.634-5.917 0.512-8.881 0.513-129.162 0.021-258.322 0.018-387.484 0.018-1.418 0-2.838 0.065-4.253-0.007-5.919-0.31-10.676 2.078-13.666 6.994-2.766 4.549-5.36 9.38-6.958 14.426-2.985 9.428-5.209 19.095-7.713 28.674-1.059 4.055-2.021 8.137-3.072 12.383 1.799 0.578 3.107 1.059 4.449 1.421 155.951 42.020 311.908 84.019 467.826 126.156 2.451 0.661 5.073 2.549 6.566 4.623 37.764 52.436 75.42 104.954 112.981 157.539 3.386 4.741 6.195 9.934 8.919 15.102 5.578 10.582 8.137 21.826 7.89 33.905-0.53 26.073-12.158 45.77-33.618 59.921zM333.602 90.042c-35.363-0.32-63.892-28.465-64.139-63.28-0.249-34.713 28.812-63.308 64.34-63.317 35.527-0.007 64.514 28.505 64.355 63.303-0.159 34.868-29.474 63.61-64.558 63.293zM334.030-0.835c-14.932 0.099-27.154 12.486-27.113 27.483 0.042 15.308 12.294 27.456 27.586 27.354 14.954-0.101 27.271-12.496 27.228-27.402-0.042-15.085-12.614-27.532-27.703-27.434zM752.013 90.045c-35.351 0.006-64.192-28.462-64.21-63.385-0.017-35.011 28.589-63.186 64.186-63.22 35.591-0.034 64.166 28.114 64.159 63.201-0.005 35.003-28.727 63.395-64.135 63.403zM752.048-0.835c-15.168-0.045-27.535 12.387-27.434 27.578 0.101 15.15 12.183 27.239 27.251 27.267 15.201 0.025 27.709-12.468 27.536-27.508-0.174-15.037-12.435-27.293-27.355-27.338z"  horiz-adv-x="1024" />

    
    <glyph glyph-name="good" unicode="&#58916;" d="M898.42 505.343h-282.744l59.885 211.68-33.47 72.758-124.021 44.219-74.375-29.232-186.248-340.267-195.448-0.002v-530.992l735.497 0.807 61.306 40.487 103.016 472.963-63.4 57.579zM132.645 395.503h94.616l0.014-393.009h-94.616l-0.014 393.009zM789.503 2.493h-493.057v394.69l202.37 376.172 111.622-39.551-92.395-297.588h369.132l-97.672-433.723z"  horiz-adv-x="1024" />

    
    <glyph glyph-name="back" unicode="&#58880;" d="M369.112 381.137l381.074 379.929c13.156 13.132 13.156 34.387 0 47.495l-11.905 11.88c-13.179 13.108-34.485 13.108-47.642 0l-416.845-415.544c-13.131-13.131-13.131-34.388 0-47.519l416.845-415.544c13.156-13.107 34.511-13.107 47.642 0l11.905 11.88c13.156 13.108 13.156 34.363 0 47.519l-381.074 379.905z"  horiz-adv-x="1024" />

    
    <glyph glyph-name="more" unicode="&#59001;" d="M169.002 489.682c-57.562 0-104.228-46.646-104.228-104.228 0-57.563 46.666-104.209 104.228-104.209s104.228 46.646 104.228 104.209c0 57.582-46.667 104.228-104.228 104.228zM501.431 489.682c-57.562 0-104.228-46.646-104.228-104.228 0-57.563 46.667-104.209 104.228-104.209s104.228 46.646 104.228 104.209c0 57.582-46.666 104.228-104.228 104.228zM854.638 489.682c-57.563 0-104.23-46.646-104.23-104.228 0-57.563 46.667-104.209 104.23-104.209s104.228 46.646 104.228 104.209c-0.001 57.582-46.666 104.228-104.228 104.228z"  horiz-adv-x="1024" />

    
    <glyph glyph-name="shoppingcart" unicode="&#58937;" d="M561.505 43.782c0-61.735 50.053-111.788 111.788-111.788s111.788 50.053 111.788 111.788-50.053 111.788-111.788 111.788-111.788-50.053-111.788-111.788zM673.294 99.676c30.867 0 55.894-25.027 55.894-55.894 0-30.868-25.027-55.894-55.894-55.894-30.868 0-55.894 25.026-55.894 55.894-0.001 30.867 25.026 55.894 55.894 55.894zM282.035 211.464c-30.868 0-55.894 25.026-55.894 55.894l642.783 55.894c0 0 83.842 338.859 83.842 363.312 0 15.446-12.501 27.948-27.948 27.948h-698.678v55.894h27.948c15.446 0 27.948 12.501 27.948 27.948 0 15.421-12.501 27.948-27.948 27.948h-167.682c-15.447 0-27.948-12.526-27.948-27.948 0-15.447 12.501-27.948 27.948-27.948h83.842v-503.047c0-61.735 50.053-111.788 111.788-111.788h642.783c0.874 0 0 27.701 0 55.894h-642.783zM226.14 658.617h670.73l-71.45-285.856-599.28-49.508v335.364zM226.14 43.782c0-61.735 50.053-111.788 111.788-111.788s111.788 50.053 111.788 111.788-50.053 111.788-111.788 111.788c-61.734 0-111.788-50.053-111.788-111.788zM337.929 99.676c30.867 0 55.894-25.027 55.894-55.894 0-30.868-25.027-55.894-55.894-55.894-30.868 0-55.894 25.026-55.894 55.894 0 30.867 25.026 55.894 55.894 55.894z"  horiz-adv-x="1024" />

    
    <glyph glyph-name="rightarrow" unicode="&#58925;" d="M310.49-49.050c7.68 0 15.36 2.94 21.21 8.79l403.080 403.020c11.73 11.73 11.73 30.69 0 42.42l-403.080 403.080c-11.73 11.73-30.69 11.73-42.42 0s-11.73-30.69 0-42.42l381.87-381.84-381.87-381.84c-11.73-11.73-11.73-30.69 0-42.42 5.85-5.85 13.53-8.79 21.21-8.79z"  horiz-adv-x="1024" />

    
    <glyph glyph-name="weixin" unicode="&#58969;" d="M317.131289 492.901405c-19.959587 0-40.08802-13.20065-40.08802-33.208333 0-19.986193 20.128433-33.32806 40.08802-33.32806 19.964704 0 33.233915 13.341866 33.233915 33.32806C350.365204 479.726338 337.071434 492.901405 317.131289 492.901405L317.131289 492.901405zM590.053192 299.777943c-13.269211 0-26.630521-13.33675-26.630521-26.630521 0-13.456477 13.362332-26.631544 26.630521-26.631544 20.12741 0 33.327036 13.175067 33.327036 26.631544C623.381252 286.441193 610.180602 299.777943 590.053192 299.777943L590.053192 299.777943zM959.062524 611.190485c0 75.29794-61.043285 136.341225-136.341225 136.341225L199.807187 747.53171c-75.29794 0-136.341225-61.043285-136.341225-136.341225L63.465962-11.723627c0-75.298963 61.043285-136.341225 136.341225-136.341225l622.914112 0c75.29794 0 136.341225 61.042261 136.341225 136.341225L959.062524 611.190485 959.062524 611.190485zM403.627269 153.135094c-33.229822 0-59.95858 6.79066-93.260034 13.367449l-93.072769-46.667879 26.634614 80.08599c-66.654073 46.595224-106.553805 106.600877-106.553805 179.756013 0 126.702704 119.892601 226.445382 266.251993 226.445382 130.921795 0 245.606791-79.709413 268.63425-186.989765-8.463766 0.944512-17.018605 1.554402-25.645077 1.554402-126.468366 0-226.352261-94.39181-226.352261-210.700793 0-19.348674 3.019777-37.994336 8.230452-55.785537C420.264181 153.562836 411.971307 153.135094 403.627269 153.135094L403.627269 153.135094zM796.371164 59.876084l20.007683-66.531276-73.03848 39.993876c-26.631544-6.670933-53.381791-13.363356-79.893608-13.363356-126.681214 0-226.445382 86.590124-226.445382 193.213513 0 106.45966 99.764168 193.216583 226.445382 193.216583 119.630634 0 226.15988-86.782505 226.15988-193.216583C889.632221 153.135094 849.800028 99.967174 796.371164 59.876084L796.371164 59.876084zM736.506728 299.777943c-13.174044 0-26.443255-13.33675-26.443255-26.630521 0-13.456477 13.269211-26.631544 26.443255-26.631544 19.960611 0 33.327036 13.175067 33.327036 26.631544C769.834788 286.441193 756.446873 299.777943 736.506728 299.777943L736.506728 299.777943zM503.464091 426.365013c20.054755 0 33.32192 13.341866 33.32192 33.32806 0 20.033265-13.268188 33.208333-33.32192 33.208333-19.965727 0-39.97341-13.20065-39.97341-33.208333C463.490681 439.706879 483.498364 426.365013 503.464091 426.365013L503.464091 426.365013zM503.464091 426.365013"  horiz-adv-x="1024" />

    
    <glyph glyph-name="star" unicode="&#58931;" d="M763.856-63.771c-10.974 0-22.003 2.71-31.952 7.834l-219.982 108.274-221.913-108.514c-21.46-11.333-51.123-9.347-71.857 5.787-20.923 14.894-31.713 41.359-27.37 67.161l45.754 234.994-174.524 161.201c-19.17 18.692-25.983 46.421-17.846 71.081 7.898 24.836 29.12 42.922 55.284 46.841l242.224 43.948 108.574 218.537c11.815 23.692 35.507 38.401 61.734 38.401 26.101 0 50.341-15.132 61.675-38.585l108.514-218.234 242.89-42.683c25.559-3.795 46.781-21.761 54.798-46.841 8.076-24.533 1.264-52.268-17.363-70.412l-175.067-163.254 44.251-234.571c4.523-26.046-6.273-52.511-27.55-67.823-11.518-8.38-25.927-13.141-40.273-13.141v0zM511.982 106.054z"  horiz-adv-x="1024" />

    
    <glyph glyph-name="huizhang" unicode="&#58889;" d="M781.075692 815.802693 636.916747 815.802693l0-432.809303 144.158945 0L781.075692 815.802693zM348.289918 815.802693 203.802597 815.802693l0-432.809303 144.487321 0L348.289918 815.802693zM853.154653 345.014346l-271.432631 5.498501-48.876819 140.61433 31.684667 0L564.52987 815.802693l-144.157922 0 0-324.676539 31.821746 0-48.711097-140.61433L131.72159 345.014346 348.289918 181.05568l-78.890965-260.064288L492.450909 76.190306l223.027405-155.198913L636.916747 181.05568 853.154653 345.014346z"  horiz-adv-x="1024" />

    
    <glyph glyph-name="close" unicode="&#58895;" d="M511.764-63.808c-246.967 0-447.873 200.907-447.873 447.879 0 246.967 200.907 447.873 447.873 447.873 246.973 0 447.879-200.907 447.879-447.873 0-246.973-200.907-447.879-447.879-447.879v0zM511.764 767.675c-211.523 0-383.603-172.081-383.603-383.603 0-211.495 172.082-383.61 383.603-383.61 211.495 0 383.61 172.115 383.61 383.61-0.001 211.523-172.116 383.603-383.61 383.603v0zM556.811 382.694l138.331 136.827c12.569 12.409 12.666 32.662 0.254 45.231-12.414 12.575-32.696 12.673-45.236 0.26l-138.522-136.99-136.406 136.828c-12.512 12.505-32.731 12.574-45.237 0.062-12.51-12.477-12.54-32.725-0.062-45.236l136.217-136.632-137.34-135.864c-12.569-12.448-12.668-32.662-0.254-45.237 6.268-6.336 14.493-9.499 22.747-9.499 8.123 0 16.25 3.099 22.489 9.245l137.53 136.022 138.647-139.097c6.238-6.267 14.43-9.401 22.65-9.401 8.191 0 16.348 3.134 22.586 9.339 12.506 12.477 12.542 32.696 0.064 45.236l-138.458 138.906zM556.811 382.694z"  horiz-adv-x="1025" />

    
    <glyph glyph-name="dizhi" unicode="&#59067;" d="M835.395 502.142c-0.54-48.744-16.106-93.313-37.133-136.326-31.506-64.455-73.34-122.051-118.808-177.143-42.326-51.288-87.748-99.709-136.227-145.24-16.942-15.906-32.4-16.394-49.767-0.806-89.925 80.708-170.74 169.191-232.43 273.863-10.040 17.034-19.141 34.595-26.979 52.766-7.429 17.223-1.023 35.239 15.018 42.677 16.087 7.46 34.571 0.916 42.397-16.104 36.87-80.18 90.8-148.31 149.733-212.925 22.723-24.914 46.528-48.781 71.171-71.812 3.048-2.845 4.966-5.157 9.295-0.797 81.665 82.286 158.121 168.687 213.784 271.394 16.225 29.939 29.754 61.224 34.286 95.317 6.83 51.391-3.492 100.283-27.872 145.381-46.432 85.891-118.503 134.872-216.87 138.324-112.057 3.933-211.621-68.431-246.89-175.298-8.859-26.846-13.552-54.361-13.917-82.633-0.261-20.213-13.514-34.486-31.782-34.439-18.325 0.044-31.706 14.65-31.653 34.539 0.414 150.335 103.965 280.568 249.899 314.29 120.739 27.904 250.079-22.273 323.16-125.255 40.368-56.882 60.423-120.289 61.587-189.773zM160.415 0.058c238.843 0 476.317 0 713.992 0-0.036 4.105-2.74 6.786-4.453 9.791-30.987 54.42-62.042 108.805-93.153 163.156-6.676 11.661-7.089 23.273 0.338 34.552 6.691 10.163 16.499 15.082 28.697 14.246 10.961-0.756 19.588-6.14 25.014-15.602 42.463-74.063 84.979-148.098 127.001-222.41 12.972-22.943-3.068-47.426-30.348-47.433-142.112-0.047-284.225-0.023-426.333-0.023-129.883 0-259.774 0.651-389.646-0.5-29.148-0.26-47.018 26.356-30.996 53.316 41.93 70.544 81.787 142.319 122.513 213.58 8.771 15.345 22.482 22.085 36.841 18.355 21.236-5.524 30.477-28.070 19.223-47.977-21.736-38.452-43.788-76.726-65.687-115.085-10.768-18.862-21.491-37.744-33.005-57.968zM644.922 507.457c0.007-70.101-57.192-127.083-127.412-126.924-69.618 0.156-126.401 57.173-126.399 126.916 0.004 70.181 57.063 127.025 127.379 126.893 69.614-0.128 126.427-57.146 126.433-126.885zM518.402 570.889c-35.237-0.009-63.773-28.316-63.832-63.315-0.058-35.394 28.912-63.919 64.58-63.584 34.248 0.322 62.464 29.228 62.317 63.84-0.148 34.554-28.659 63.067-63.064 63.059z"  horiz-adv-x="1024" />

    
    <glyph glyph-name="qianbao" unicode="&#58913;" d="M484.608 642.496c99.456 0 198.976 1.024 298.368-0.32 86.528-1.216 111.296-24.192 117.312-108.48 2.688-37.376 6.464-69.696 50.368-82.624 9.984-2.88 20.48-23.488 20.8-36.16 1.856-72.896 2.176-145.92-0.448-218.752-0.512-14.272-13.504-34.496-26.304-40.512-32.832-15.68-42.432-39.04-44.544-73.408-5.312-86.912-37.248-117.184-125.12-117.824-196.736-1.216-393.472-1.024-590.144 0-86.912 0.512-126.848 39.744-127.488 125.376-1.088 141.44-0.064 282.88 0.064 424.32 0 8.832-0.064 17.792 0.96 26.56 7.744 65.792 41.664 100.032 107.968 101.312C272.384 643.968 378.496 642.56 484.608 642.496zM478.336 597.312c0 0.128 0 0.256 0 0.448-17.728 0-35.392 0-53.12 0C343.424 597.44 261.568 597.312 179.84 596.992 146.176 596.8 118.144 586.496 107.84 550.912 103.616 536.32 102.016 520.448 102.016 505.216c-0.448-132.608-1.024-265.28 0-398.016 0.576-75.584 22.848-98.24 100.48-98.688 185.728-1.28 371.52-0.64 557.248-0.32 17.408 0.128 35.712 1.6 52.096 7.104 34.56 11.52 51.392 49.024 44.48 92.992-4.992 32.064-15.168 39.36-63.616 40.576-44.16 1.216-88.512-0.384-132.608 1.344-30.72 1.152-62.016 2.752-91.776 9.472-43.328 9.792-69.056 39.424-70.72 84.736C496 286.336 496.448 328.448 498.944 370.304 501.44 412.736 528 439.04 566.72 451.072c18.496 5.76 39.424 5.12 59.2 5.312 59.712 0.704 119.296-0.832 179.072 0.96 39.744 1.216 49.92 13.632 51.904 52.928 2.944 61.184-17.216 85.312-80.192 86.528C677.312 598.656 577.792 597.312 478.336 597.312zM742.464 199.232c41.856 0 83.712-1.152 125.632 0.32 48.832 1.664 55.488 9.344 57.344 59.584 1.024 28.544 0.896 57.28 0.256 85.824-1.28 57.024-4.992 61.568-59.456 62.528-68.352 1.152-136.576 0.384-204.864 0.384C545.664 407.808 533.376 394.432 541.312 277.504c4.096-60.544 19.392-75.84 82.176-78.016C663.104 198.08 702.784 199.168 742.464 199.232zM364.096 717.568c93.248 43.584 186.432 87.424 279.936 130.56 21.312 9.856 40.064 2.56 50.432-17.664 15.936-31.296 30.208-63.488 43.52-95.936 2.688-6.592-0.32-22.4-3.008-22.976-9.664-2.048-24.32-3.136-29.632 2.432-11.776 12.224-19.008 28.864-28.096 43.584-22.976 36.736-27.52 38.848-68.224 21.76C558.208 758.016 509.056 732.928 457.6 713.792 430.144 703.68 399.424 702.592 370.112 697.344 368.128 704.128 366.144 710.848 364.096 717.568z"  horiz-adv-x="1024" />

    
    <glyph glyph-name="info" unicode="&#58933;" d="M510.762 515.62c33.776 0 61.164 28.148 61.164 62.88 0 34.725-27.389 62.877-61.164 62.877-33.778 0-61.166-28.153-61.166-62.877-0.001-34.732 27.388-62.88 61.166-62.88zM563.219 102.964h-104.917l6.398 350.636h92.121zM510.762 781.445c53.647 0 105.663-10.495 154.602-31.194 47.295-20.005 89.781-48.653 126.277-85.15 36.498-36.496 65.146-78.983 85.151-126.278 20.698-48.94 31.193-100.954 31.193-154.602s-10.496-105.664-31.193-154.603c-20.006-47.295-48.653-89.781-85.151-126.277-36.496-36.496-78.983-65.146-126.277-85.151-48.94-20.697-100.955-31.192-154.602-31.192-53.648 0-105.664 10.496-154.603 31.192-47.295 20.006-89.782 48.655-126.278 85.151-36.498 36.496-65.146 78.983-85.15 126.277-20.698 48.94-31.194 100.955-31.194 154.603s10.496 105.663 31.194 154.602c20.005 47.295 48.653 89.782 85.15 126.278 36.496 36.498 78.983 65.146 126.278 85.15 48.94 20.7 100.955 31.194 154.603 31.194M510.762 832.627c-247.648 0-448.407-200.759-448.407-448.407 0-247.648 200.759-448.406 448.407-448.406 247.647 0 448.406 200.758 448.406 448.406-0 247.647-200.758 448.407-448.406 448.407v0z"  horiz-adv-x="1024" />

    
    <glyph glyph-name="zhifubao" unicode="&#59354;" d="M311.753303 140.784676c-130.772392 0-151.417595 82.591043-144.535861 117.004831 6.877641 34.417881 44.738947 79.156828 117.431549 79.156828 83.60207 0 158.343331-21.332864 248.183476-65.090461C469.814202 189.733505 392.241452 140.784676 311.753303 140.784676M958.721251 219.932294 958.721251 660.444123c0 94.985328-77.027327 172.051541-172.050518 172.051541L236.026598 832.495664c-94.988398 0-172.054611-77.032444-172.054611-172.051541l0-550.643112c0-94.998631 77.031421-172.055634 172.054611-172.055634L786.670733-62.254623c84.656075 0 155.069775 61.182454 169.397085 141.751445-45.613874 19.624966-243.417939 105.019869-346.406544 154.276712-78.379115-94.947466-160.492274-151.917992-284.260136-151.917992-123.770931 0-206.366068 76.136028-196.408275 169.487136 6.532787 61.270459 48.548716 161.307849 230.937696 144.100956 96.132454-9.069563 140.14997-26.997887 218.624253-52.832276 20.163225 37.161365 37.092803 78.093613 49.799196 121.659851L280.782941 464.271208l0 34.413787 171.945117 0 0 61.945841L242.951311 560.630836l0 37.852096 209.775724 0 0 89.23844c0 0 1.979074 14.001899 17.325597 14.001899l86.037539 0 0-103.240339 223.680409 0 0-37.852096L556.084031 560.630836l0-61.945841 182.397167 0c-16.730033-68.328201-42.119283-131.012869-74.015737-185.875384C717.51877 293.674808 958.721251 219.932294 958.721251 219.932294"  horiz-adv-x="1024" />

    
    <glyph glyph-name="fenlei" unicode="&#58898;" d="M447.70516 753.650945 150.356938 753.650945c-9.384741 0-16.990976-7.607258-16.990976-16.990976l0-297.348222c0-9.383718 7.607258-16.990976 16.990976-16.990976l297.348222 0c9.384741 0 16.990976 7.608282 16.990976 16.990976L464.696136 736.659969C464.696136 746.04471 457.089901 753.650945 447.70516 753.650945zM447.70516 345.682299 150.356938 345.682299c-9.384741 0-16.990976-7.607258-16.990976-16.991999l0-297.347199c0-9.383718 7.607258-16.991999 16.990976-16.991999l297.348222 0c9.384741 0 16.990976 7.609305 16.990976 16.991999L464.696136 328.689277C464.696136 338.075041 457.089901 345.682299 447.70516 345.682299zM716.31792 427.949978c4.777817-4.777817 12.522198-4.77884 17.300015 0L885.003807 579.334827c4.777817 4.777817 4.777817 12.524245 0 17.301038L733.617935 748.020714c-4.777817 4.777817-12.522198 4.777817-17.301038 0L564.932048 596.635865c-4.777817-4.777817-4.777817-12.523221 0-17.300015L716.31792 427.949978zM873.641015 345.682299 576.293817 345.682299c-9.384741 0-16.990976-7.607258-16.990976-16.991999l0-297.347199c0-9.383718 7.607258-16.991999 16.990976-16.991999L873.641015 14.351102c9.384741 0 16.991999 7.609305 16.991999 16.991999L890.633015 328.689277C890.634038 338.075041 883.025757 345.682299 873.641015 345.682299z"  horiz-adv-x="1024" />

    
    <glyph glyph-name="gouwu" unicode="&#58897;" d="M919.608-69.215h-815.882c-57.858 0-69.213 29.003-69.213 79.070 0 25.389 8.7 258.491 16.344 464.139 5.063 136.017 9.438 253.477 9.855 272.822 1.376 62.256 28.241 90.030 87.057 90.030h717.296c40.21 0 87.205-8.087 94.235-71.204 2.9-26.152 11.945-256.968 22.538-533.278 4.497-116.896 8.037-209.212 9.045-227.4 1.303-23.594-4.178-42.053-16.296-54.86-12.289-13-30.279-19.318-54.981-19.318zM88.095-18.142c1.252 0 5.603-0.737 15.632-0.737h815.882c14.303 0 17.843 2.974 18.408 3.563 1.573 1.647 3.172 7.226 2.606 17.476-1.033 18.631-4.573 111.143-9.095 228.285-7.667 200.364-19.319 503.17-22.243 529.642-1.844 16.466-2.95 26.422-44.217 26.422h-717.296c-29.495 0-35.885-3.515-36.72-40.825-0.442-19.713-4.817-137.345-9.88-273.558-7.276-195.054-16.322-437.817-16.322-462.271 0-21.752 2.212-27.085 2.877-28.216-0.098 0.171 0 0.22 0.368 0.22zM787.45 579.926c0 22.858-15.608 41.857-36.672 47.462-4.056 1.057-8.233 1.819-12.608 1.819-14.207 0-26.888-6.072-35.884-15.682-8.235-8.799-13.396-20.572-13.396-33.599 0-20.105 12.045-37.309 29.299-44.978 0-0.394 0.073-0.762 0.073-1.156 0-114.486-93.153-207.639-207.638-207.639-114.487 0-207.638 93.153-207.638 207.639 0 0.098 0.024 0.197 0.024 0.32 18.36 7.153 31.412 24.898 31.412 45.814 0 13.79-5.703 26.225-14.822 35.172-8.873 8.7-21.015 14.108-34.458 14.108-5.236 0-10.201-1.032-14.918-2.557-19.884-6.341-34.361-24.727-34.361-46.724 0-14.918 6.784-28.142 17.254-37.162-0.123-3.022-0.467-5.947-0.467-8.971 0-142.26 115.741-257.975 257.976-257.975 142.236 0 257.975 115.715 257.975 257.975 0 2.482-0.32 4.867-0.37 7.325 11.605 9.021 19.223 22.957 19.223 38.81z"  horiz-adv-x="1039" />

    
    <glyph glyph-name="xiazai" unicode="&#58899;" d="M541.027 864c-265.094 0-480-214.906-480-480 0-265.098 214.906-480 480-480 265.098 0 479.999 214.902 479.999 480 0.006 265.094-214.901 480-479.999 480v0zM541.027-44.722c-236.78 0-428.723 191.941-428.723 428.721 0 236.776 191.946 428.722 428.722 428.722 236.775 0 428.721-191.946 428.721-428.722 0-236.78-191.946-428.721-428.721-428.721v0zM699.699 150.961l-391.3 391.301 75.949 75.944 391.3-391.301-75.949-75.944zM384.347 150.961l-75.949 75.944 391.3 391.301 75.949-75.944-391.3-391.301z"  horiz-adv-x="1087" />

    
    <glyph glyph-name="packet" unicode="&#58885;" d="M109.44 549.248v167.936c0 23.296 20.352 42.24 45.44 42.24h536.832v-100.032l45.44 8.576v133.632h-586.752c-47.744 0-86.4-35.904-86.4-80.192v-180.8l45.44 8.64zM834.368 137.6v-86.784c0-23.296-20.352-42.24-45.44-42.24h-633.984c-25.088 0-45.44 18.88-45.44 42.24l0 544.128c0 23.296 20.352 42.176 45.44 42.176h633.984c25.088 0 45.44-18.88 45.44-42.176v-92.864c0-11.776 10.176-21.184 22.72-21.184s22.72 9.472 22.72 21.12l-0 97.152c0 44.288-38.656 80.192-86.336 80.192h-643.072c-47.744 0-86.4-35.904-86.4-80.192v-552.576c0-44.288 38.656-80.192 86.4-80.192h643.136c47.68 0 86.336 35.904 86.336 80.192v91.008c-0.064 11.648-10.24 20.992-22.72 20.992-12.544 0-22.656-9.408-22.784-20.992v0zM914.496 290.496c0-24.64-20.352-44.608-45.44-44.608h-159.040c-25.152 0-45.504 19.968-45.504 44.608v57.024c0 24.64 20.352 44.608 45.504 44.608h159.104c25.088 0 45.44-20.032 45.44-44.608l-0.064-57.024zM705.472 436.8c-44.736 0-81.088-33.472-85.504-76.288-0.512-0.768-0.896-1.856-0.896-3.84v-70.592c0-46.848 38.656-84.8 86.4-84.8h168.192c47.68 0 86.4 37.952 86.4 84.8v65.92c0 46.848-38.656 84.8-86.4 84.8h-168.192zM726.144 343.232h122.24v-40.768h-122.24v40.768z"  horiz-adv-x="1024" />

    
    <glyph glyph-name="code" unicode="&#59018;" d="M512 834.56h450.56v-450.56l-430.080-430.080c-34.133-40.96-129.707 0-129.707 0l-320.853 320.853c-40.96 61.44 0 129.707 0 129.707l430.080 430.080zM136.533 384c0 0-40.96-47.787 0-95.573l279.893-279.893c0 0 61.44-34.133 95.573 0l300.373 300.373 95.573 88.747v382.293h-375.467l-395.947-395.947zM136.533 384zM812.373 568.32c0-68.267-54.613-122.88-122.88-122.88s-122.88 54.613-122.88 122.88c0 68.267 54.613 122.88 122.88 122.88 68.267 0 122.88-54.613 122.88-122.88v0zM696.32 629.76c-34.133 0-61.44-27.307-61.44-61.44s27.307-61.44 61.44-61.44c34.133 0 61.44 27.307 61.44 61.44 0 34.133-27.307 61.44-61.44 61.44v0zM696.32 629.76zM177.493 424.96l40.96 40.96 375.467-375.467-47.787-47.787-368.64 382.293zM177.493 424.96z"  horiz-adv-x="1024" />

    
    <glyph glyph-name="dingdanzhuangtai" unicode="&#58881;" d="M298.41 139.936h237.311v47.2h-237.311v-47.2zM298.41 305.103h427.178v47.199h-427.178v-47.199zM583.197 847.804h-142.393v-47.199h142.393v47.199zM298.41 470.27h427.178v47.199h-427.178v-47.199zM867.952 847.804h-142.363c0 0.001-71.196 4.249-71.196-47.199 0-32.404-19.993-43.714-38.793-47.199h-199.956c-20.482 2.537-46.038 12.625-46.038 47.199 0 57.898-71.197 47.199-71.197 47.199v0h-142.363c-26.228 0-47.475-21.124-47.475-47.199v-849.404c0-26.077 21.247-47.199 47.475-47.199h545.788l213.59 212.366v684.236c0 26.077-21.246 47.2-47.475 47.2v0 0zM678.115-48.8v165.167c0 13.022 10.608 23.569 23.722 23.569h166.115l-189.837-188.736zM867.952 187.134h-189.836c-26.228 0-47.475-21.124-47.475-47.2v-188.736h-450.869c-13.115 0-23.722 10.547-23.722 23.6v802.206c0 13.023 10.608 23.6 23.722 23.6h113.811c15.011-5.105 28.277-17.883 28.583-47.199 0.519-51.57 71.197-47.168 71.197-47.168h237.279c0 0.001 71.196-0.215 71.196 54.017 0 26.873 17.76 36.988 35.523 40.352h106.871c13.114 0 23.722-10.577 23.722-23.6v-589.87h-0.001z"  horiz-adv-x="1024" />

    
    <glyph glyph-name="gouwucheweikong" unicode="&#59363;" d="M777.216 112.64c-47.616 0-86.528-39.424-86.528-87.552s38.912-87.552 86.528-87.552 86.528 39.424 86.528 87.552-38.912 87.552-86.528 87.552M777.216-16.384c-23.040 0-41.472 18.432-41.472 41.472s18.432 41.472 41.472 41.472 41.472-18.432 41.472-41.472-18.432-41.472-41.472-41.472M769.024 233.984c-4.096 0-8.704 0-13.312 0.512l-345.6-0.512s-11.776 6.144-11.776 22.528c0 15.36 11.264 22.528 11.264 22.528h361.984c38.912 1.536 62.464 4.096 81.408 30.72 5.632 8.192 10.24 17.92 15.36 30.72l46.592 164.352c6.144 29.184-1.536 40.448-9.728 49.664-12.8 14.336-49.152 14.336-49.152 14.336h-492.032s-11.264 6.656-11.264 23.040c0 15.36 11.264 21.504 11.264 21.504h492.032c4.608-0.512 49.152 3.584 80.896-26.112 18.944-17.92 24.064-41.984 21.504-68.608-1.536-15.36-51.712-206.848-73.216-237.056-19.968-27.648-48.128-47.616-116.224-47.616zM364.544 146.944c-38.912 0-51.2 9.216-62.464 24.064-15.36 18.944-17.408 44.032-19.968 55.296l-78.336 377.344c-1.536 10.752-13.824 26.112-24.576 32.256-17.408 9.728-90.624 5.632-104.96 6.656 0 0-9.216 7.168-9.216 21.504 0 16.384 8.704 22.528 8.704 22.528 5.632 0.512 14.336 0.512 44.544 0.512 43.008 0 69.632 0 96.256-18.944 29.184-20.48 31.232-49.664 35.328-75.776l79.36-376.32 1.024-4.096c1.536-4.608 3.584-8.704 9.216-13.312 6.656-5.632 13.312-7.168 19.968-7.68h510.464v-44.544h-500.224c-1.536 0.512-3.072 0.512-5.12 0.512M451.584 112.64c-47.616 0-86.528-39.424-86.528-87.552s38.912-87.552 86.528-87.552c47.616 0 86.528 39.424 86.528 87.552s-38.912 87.552-86.528 87.552M451.584-16.384c-23.040 0-41.472 18.432-41.472 41.472s18.432 41.472 41.472 41.472 41.472-18.432 41.472-41.472-18.432-41.472-41.472-41.472M466.432 689.664l-35.84 88.576c-4.096 9.728 1.024 20.992 10.752 25.088l5.632 2.048c9.728 4.096 20.992-1.024 25.088-10.752l35.84-88.576c4.096-9.728-1.024-20.992-10.752-25.088l-5.632-2.048c-9.728-4.096-20.992 1.024-25.088 10.752zM806.4 689.664l35.84 88.576c4.096 9.728-1.024 20.992-10.752 25.088l-5.632 2.048c-9.728 4.096-20.992-1.024-25.088-10.752l-35.84-88.576c-4.096-9.728 1.024-20.992 10.752-25.088l5.632-2.048c9.728-4.096 21.504 1.024 25.088 10.752zM617.472 716.8v95.232c0 10.752 8.704 19.456 19.456 19.456h6.144c10.752 0 19.456-8.704 19.456-19.456v-95.232c0-10.752-8.704-19.456-19.456-19.456h-6.144c-10.752 0-19.456 8.704-19.456 19.456z"  horiz-adv-x="1024" />

    
    <glyph glyph-name="duihuan" unicode="&#58928;" d="M436.632 370.892s-238.582 59.645-298.23 178.931v238.573h238.582l59.65-59.645v59.646l-59.648 59.646h-298.228v-298.218c0 0.001 59.643-178.931 357.873-178.931zM376.984 13.033h-238.582v238.572l59.648 59.646h-59.648l-59.643-59.646v-298.218h298.224s178.947 59.647 178.947 357.864c0.001 0-59.648-238.577-178.944-298.217zM615.571 430.537s238.589-59.645 298.23-178.932v-238.572h-238.586l-59.643 59.64v-59.64l59.643-59.647h298.23v298.218s-59.642 178.932-357.873 178.932zM675.214 848.042s-178.934-59.646-178.934-357.863c0 0 59.648 238.572 178.934 298.217h238.588v-238.572l-59.642-59.648h59.642l59.642 59.648v298.216h-298.229z"  horiz-adv-x="1024" />

    
    <glyph glyph-name="setting" unicode="&#58932;" d="M918.219 486.412l-71.918 15.973c-5.603 17.898-12.909 35.055-21.361 51.558l38.915 64.778c14.533 23.238 21.839 57.378 0 79.262l-39.656 39.613c-10.68 10.726-25.037 15.231-39.526 15.231-15.011 0-30.202-4.903-41.535-12.78l-63.076-40.182c-16.371 8.492-33.441 15.758-51.211 21.535l-16.148 72.743c-4.814 26.7-28.148 55.587-59.089 55.587h-56.027c-30.947 0-49.898-29.325-56.026-56.024l-17.992-71.868c-18.95-6.040-37.205-13.783-54.538-22.936l-64.645 41.144c-11.381 7.879-26.526 12.78-41.582 12.78-14.445 0-28.801-4.504-39.526-15.23l-39.61-39.613c-21.886-21.884-14.532-56.023 0-79.262l40.922-68.191c-7.656-15.495-14.486-31.427-19.737-48.145l-71.871-15.973c-26.699-4.821-55.588-28.146-55.588-59.094v-56.023c0-30.942 29.326-49.897 56.026-56.025l72.786-18.161c5.038-15.453 11.294-30.287 18.432-44.643l-40.97-68.28c-14.531-23.196-21.844-57.336 0-79.22l39.656-39.613c10.68-10.721 25.037-15.274 39.521-15.274 15.016 0 30.203 4.903 41.542 12.782l64.779 41.318c17.461-9.233 35.804-17.072 54.887-23.112l17.947-71.693c6.128-26.698 25.078-56.023 56.026-56.023h56.026c30.942 0 54.275 28.887 59.089 55.585l16.148 72.96c17.596 5.694 34.491 12.874 50.645 21.231l63.205-40.267c11.334-7.879 26.525-12.782 41.535-12.782 14.49 0 28.846 4.553 39.526 15.274l39.656 39.613c21.839 21.884 14.533 56.023 0 79.22l-38.955 64.866c7.832 15.406 14.62 31.426 20.088 48.058l72.793 18.161c26.7 6.127 56.026 25.082 56.026 56.023v56.024c-0.002 30.949-28.89 54.274-55.59 59.095zM928.986 371.295c0-2.229-8.27-9.319-22.060-12.557l-96.82-24.16-7.703-23.548c-4.552-13.83-10.418-27.836-17.42-41.628l-11.293-22.099 52.174-86.878c7.091-11.339 7.878-22.193 6.344-23.769l-39.743-39.655c-1.925-1.925-6.432-2.101-7.791-2.101-5.516 0-11.819 1.926-16.020 4.815l-0.7 0.484-0.741 0.48-84.962 54.186-22.935-11.906c-14.397-7.486-29.151-13.655-43.812-18.382l-24.424-7.921-5.514-25.035-16.196-72.965-0.35-1.751c-1.663-9.279-10.114-18.733-14.97-18.733h-56.026c-2.234 0-9.367 8.269-12.564 22.1l-17.9 71.697-6.087 24.289-23.9 7.575c-15.931 5.031-31.905 11.771-47.487 19.999l-23.022 12.123-88.203-56.242c-4.201-2.888-10.504-4.814-16.019-4.814-1.354 0-5.864 0.175-7.832 2.188l-39.614 39.567c-1.576 1.575-0.829 12.429 6.7 24.509l40.968 68.28 12.646 21.008-10.942 21.972c-6.607 13.259-11.817 25.91-15.932 38.563l-7.704 23.589-97.695 24.382c-12.997 3.016-21.225 10.107-21.225 12.337v56.023c0 4.861 9.407 13.306 18.688 15.016l0.922 0.133 0.874 0.216 97.17 21.535 7.745 24.686c4.161 13.172 9.764 26.786 17.117 41.668l10.943 21.972-12.654 21.055-41.359 68.932c-7.091 11.293-7.88 22.189-6.304 23.764l39.609 39.612c1.926 1.926 6.129 2.101 7.839 2.101 5.555 0 11.817-1.838 16.020-4.727l0.699-0.525 0.788-0.478 86.578-55.149 23.024 12.121c15.319 8.054 31.205 14.794 47.312 19.871l23.77 7.615 6.082 24.247 18.167 72.702c2.977 12.997 10.155 21.225 12.344 21.225h56.026c4.856 0 13.306-9.414 14.969-18.693l0.175-0.915 0.175-0.876 21.711-97.779 24.423-7.879c14.882-4.814 29.805-11.117 44.383-18.645l22.936-11.905 85.569 54.535 0.7 0.525c4.201 2.889 10.506 4.727 16.020 4.727 1.359 0 5.864-0.128 7.878-2.101l39.568-39.567c1.622-1.575 0.835-12.517-6.693-24.509l-38.915-64.778-12.781-21.359 11.293-22.147c7.925-15.494 13.965-30.114 18.518-44.557l7.743-24.773 98.968-21.884c9.278-1.71 18.733-10.154 18.733-15.015v-56.022zM525.949 581.128c-99.056 0-179.72-80.494-179.72-179.452 0-98.962 80.665-179.41 179.72-179.41 99.137 0 179.762 80.445 179.762 179.41 0 98.958-80.626 179.451-179.763 179.451zM526.386 266.035c-74.719 0-135.559 60.664-135.559 135.158 0 74.493 60.841 135.117 135.559 135.117 74.713 0 135.513-60.624 135.513-135.117 0-74.494-60.8-135.158-135.513-135.158z"  horiz-adv-x="1024" />

    
    <glyph glyph-name="index" unicode="&#58934;" d="M949.082 376.657l-440.378 411.753-440.378-410.543c-8.615-8.032-9.095-21.539-1.044-30.145 8.043-8.601 21.566-9.086 30.175-1.036l411.215 383.338 411.233-384.505c3.798-3.568 8.926-5.76 14.566-5.76 0.009 0 0.017 0 0.026 0 5.69 0 11.383 2.26 15.583 6.758 8.059 8.601 7.615 22.095-0.998 30.14zM949.082 376.657zM814.7 368.199c-11.787 0-21.349-9.556-21.349-21.328v-327.037h-170.798v227.503h-227.728v-227.503h-170.793v327.037c0 11.772-9.552 21.328-21.348 21.328-11.803 0-21.353-9.556-21.353-21.328v-369.692h256.195v227.502h142.33v-227.502h256.189v369.692c0.001 11.772-9.563 21.328-21.345 21.328zM814.7 368.199zM665.255 673.905h128.095v-113.749c0-11.79 9.563-21.333 21.349-21.333 11.783 0 21.346 9.543 21.346 21.333v156.404h-170.791c-11.79 0-21.353-9.538-21.353-21.328-0.001-11.786 9.563-21.328 21.353-21.328zM665.255 673.905z"  horiz-adv-x="1024" />

    
    <glyph glyph-name="wenhao" unicode="&#58935;" d="M512 837.51c-250.073 0-453.519-203.453-453.519-453.532 0-250.054 203.449-453.489 453.519-453.489s453.519 203.435 453.519 453.489c0 250.078-203.449 453.532-453.519 453.532zM557.759 52.799h-91.074v91.075h91.074v-91.075zM702.145 458.859c-13.328-23.991-39.394-53.166-78.192-87.521-26.065-23.102-43.092-40.137-51.091-51.091-7.997-10.96-13.924-23.546-17.77-37.763-3.854-14.215-6.076-37.318-6.666-69.306h-76.857c-0.3 10.663-0.444 18.659-0.444 23.991 0 31.39 4.442 58.49 13.327 81.301 6.512 17.173 17.027 34.499 31.541 51.979 10.663 12.732 29.836 31.323 57.533 55.755 27.692 24.436 45.684 43.907 53.979 58.422 8.289 14.507 12.441 30.356 12.441 47.536 0 31.099-12.149 58.422-36.431 81.969-24.289 23.547-54.055 35.317-89.298 35.317-34.063 0-62.497-10.661-85.299-31.987-22.811-21.324-37.763-54.643-44.871-99.959l-82.19 9.774c7.402 60.711 29.392 107.213 65.974 139.5 36.576 32.278 84.926 48.423 145.053 48.423 63.676 0 114.468-17.325 152.384-51.978 37.908-34.653 56.866-76.566 56.866-125.728 0.002-28.433-6.661-54.645-19.99-78.636z"  horiz-adv-x="1024" />

    
    <glyph glyph-name="fankui" unicode="&#58938;" d="M512 834c-174.351 0-316.22-141.226-316.22-314.83 0-54.618 14.619-108.719 42.056-156.257 1.031-2.601 2.471-5.045 4.222-7.104 11.531-18.865 25.018-36.574 40.048-52.453 43.961-62.879 67.436-116.416 66.097-150.672-0.053-1.802 0.053-3.551 0.309-4.942l-0.053-0.645c-0.153-1.826-0.308-3.653-0.308-5.688v-112.63c0-50.268 41.078-91.192 91.577-91.192h145.987c50.497 0 91.576 40.924 91.576 91.192v112.629c0 4.066-0.412 7.594-0.772 10.013l0.051 0.387v0.876c-1.336 35.055 23.063 89.903 68.618 154.274 12.921 14.080 24.557 29.317 34.542 45.222l2.83 3.423c2.368 2.73 4.067 6.077 4.993 9.652 26.615 47.049 40.667 100.278 40.667 153.916 0.001 173.604-141.816 314.83-316.219 314.83zM739.321 385.587c-0.513-0.823-0.877-1.622-1.185-2.289-0.513-0.695-1.079-1.468-1.596-2.24-9.008-14.465-19.355-27.978-30.679-40.177-2.047-2.124-3.607-4.733-4.485-7.639-28.203-37.945-66.295-100.515-74.994-155.698h-227.94c-6.538 42.855-31.71 95.618-74.692 156.952-0.823 1.081-1.646 2.136-2.523 3.038-13.487 14.001-25.48 29.677-35.622 46.509-0.204 0.36-0.36 0.696-0.617 1.055l-1.389-0.746 1.184 1.158c-24.194 40.666-37.012 86.867-37.012 133.659 0 145.061 118.551 263.095 264.231 263.095 145.729 0 264.23-118.035 264.23-263.095 0-46.793-12.767-92.966-36.909-133.582zM625.3 125.786v-50.886h-225.158v50.886h225.158zM624.683 23.141c-2.78-19.407-19.251-33.82-38.966-33.82h-145.99c-19.716 0-36.137 14.412-38.968 33.82h223.924z"  horiz-adv-x="1024" />

    
    <glyph glyph-name="fanyifan" unicode="&#58939;" d="M879.124 802.145h-734.249c-28.969 0-52.444-23.398-52.444-52.265v-731.719c0-28.867 23.479-52.26 52.444-52.26h734.249c28.964 0 52.444 23.393 52.444 52.26v731.719c0 28.867-23.479 52.265-52.444 52.265zM962.499 723.758h61.399v-679.475h-61.399v679.475zM0.102 723.758h61.399v-679.475h-61.399v679.475zM861.015 36.69h-699.735v701.44h699.735v-701.44zM225.449 357.961h387.753c9.052 0 16.384 7.357 16.384 16.42v40.135c0 0.005 0 0.010 0 0.015 0 9.052-7.333 16.391-16.383 16.399h-387.754c-9.049-0.012-16.379-7.349-16.379-16.399 0-0.005 0-0.011 0-0.016v-40.135c0-0.005 0-0.010 0-0.015 0-9.051 7.329-16.39 16.377-16.404zM220.534 532.039h271.433c6.333 0 11.465 7.357 11.465 16.42v40.135c0 9.068-5.13 16.415-11.465 16.415h-271.433c-6.329 0-11.465-7.353-11.465-16.415v-40.135c0-9.062 5.135-16.42 11.465-16.42zM786.405 256.85h-553.938c-12.918 0-23.398-7.353-23.398-16.415v-40.135c0-9.068 10.481-16.42 23.398-16.42h553.933c12.929 0 23.409 7.357 23.409 16.42v40.135c0.005 9.062-10.476 16.415-23.404 16.415z"  horiz-adv-x="1024" />

    
    <glyph glyph-name="usercenter" unicode="&#58940;" d="M512.382 832.676c-246.334 0-446.606-200.256-446.606-446.606s200.273-446.606 446.606-446.606c246.327 0 446.601 200.256 446.601 446.606s-200.267 446.606-446.601 446.606zM517.707-26.862c-152.426 0-258.758 92.165-260.516 93.924 24.805 14.183 125.819 33.669 148.865 49.633 26.57 15.947 17.706 106.332 17.706 106.332l-17.706 15.947s-3.539 40.769-12.403 54.941c-14.183 24.821-35.45 88.621-35.45 88.621s-17.722 12.403-17.722 35.45c0 23.025 17.722 35.427 17.722 35.427s-14.183 62.035-14.183 106.349c0 99.232 76.224 141.781 179.011 141.781 102.794 0 161.262-49.633 161.262-141.781 0-44.314-7.078-106.349-7.078-106.349s17.722-12.403 17.722-35.427c0-23.046-17.722-35.45-17.722-35.45s-17.728-54.935-35.45-88.621c-7.089-14.172-12.409-54.941-12.409-54.941l-17.716-15.947s-8.864-90.385 17.716-106.332c23.058-14.183 122.29-33.669 147.095-47.858-0.011-1.775-108.107-95.699-258.747-95.699z"  horiz-adv-x="1024" />

    
    <glyph glyph-name="junzhuanpeixun" unicode="&#58941;" d="M303.065 566.71c22.316-67.721 84.409-67.597 106.642 0 7.331 3.865 14.883 15.287 16.103 24.739 1.305 9.899 0.544 23.077-9.42 23.077-2.177 31.729-19.602 58.592-59.185 58.592-38.662 0-58.374-23.307-60.816-58.592-9.964 0-10.727-13.177-9.422-23.077 1.219-9.451 8.768-20.875 16.098-24.739zM446.393 178.306v23.554c25.9 0 46.884 21.029 46.884 46.955v1.569l182.501 182.47c4.947 4.943 4.947 12.931 0 17.842-4.909 4.943-12.893 4.943-17.807 0l-164.694-164.627v155.453c0 33.807-24.651 63.041-59.134 70.293l-25.219 5.218-52.534-104.638-52.538 104.638-25.194-5.219c-34.507-7.251-59.107-36.485-59.107-70.292v-192.707c0-25.925 20.96-46.955 46.862-46.955v-23.554h179.979zM70.797 340.612c0-71.955 58.538-130.485 130.453-130.485h1.524c-6.896 11.314-11.027 24.492-11.027 38.687v17.856c-36.757 4.757-65.349 35.899-65.349 73.94v354.69c0 41.287 33.587 74.867 74.852 74.867h622.718c41.266 0 74.858-33.578 74.858-74.867v-354.689c0-41.305-33.591-74.881-74.859-74.881h-276.034l-27.829-27.835c-1.6-10.237-5.699-19.381-10.802-27.771h314.668c71.916 0 130.453 58.531 130.453 130.485v354.689c0 71.943-58.538 130.474-130.453 130.474h-622.718c-71.916 0-130.453-58.531-130.453-130.473v-354.689zM253.487 132.523h-97.305c-47.162 0-85.387-38.225-85.387-85.346v-112.733h268.050v112.736c0.001 47.121-38.222 85.345-85.358 85.345zM562.783 132.523h-97.307c-47.162 0-85.39-38.225-85.39-85.346v-112.733h268.054v112.736c0 47.121-38.228 85.345-85.358 85.345zM872.075 132.523h-97.307c-47.159 0-85.386-38.225-85.386-85.346v-112.733h268.053v112.736c0 47.121-38.233 85.345-85.362 85.345z"  horiz-adv-x="1024" />

    
    <glyph glyph-name="shizheng" unicode="&#58942;" d="M1330.156 614.756l17.505 15.845-42.416 0.109-20.994-20.14-23.321 20.248h-3.031l-21.103-20.248-24.926 21.632-22.542-21.632-24.923 21.635-22.546-21.635-24.911 21.635-22.545-21.635-24.926 21.635-22.546-21.635-24.924 21.635-22.545-21.635-24.911 21.635-22.545-21.635-24.924 21.635-22.545-21.635-24.911 21.635-22.545-21.635-24.924 21.635-22.544-21.635-24.925 21.635h419.966l-1.128 45.092h-484.356v72.746l89.776-0.176-0.448 84.134h-109.316l-0.599-156.527-475.67-0.883-0.123-44.385h395.777l-22.545-21.635-24.911 21.635-22.545-21.635-24.923 21.635-22.546-21.635-24.923 21.635-22.546-21.635-24.91 21.635-22.548-21.635-24.923 21.635-22.545-21.635-24.925 21.635-22.545-21.635-24.91 21.635-22.546-21.635-24.921 21.632-22.546-21.637-24.918 21.636-22.539-21.63-24.925 21.632-22.544-21.632-18.211 15.805-19.841 0.68 18.399-16.023 97.304-86.621-0.597-493.638-42.713-1.656 0.218-95.115h1113.334v94.883l-37.903 0.706-1.78 492.442 16.908 15.939 83.657 76.783zM437.755 33.751h-82.055v488.689h82.055v-488.689zM594.2 35.286h-83.428v485.66h83.428v-485.659zM783.439 570.086c-3.344-14.435-5.314-36.082-13.658-45.092-7.405-8.003-16.974-15.397-18.387-26.106 0 0 1.263-230.117 0.706-353.118-0.19-36.135-0.039-72.271-0.039-112.456h-89.516v113.679c0 59.209-0.585 118.447 0.149 177.658 0.746 58.506-0.883 175.432-0.883 175.432-2.378 10.682-12.164 14.269-17.763 24.434-5.34 9.678-6.198 26.025-11.089 35.852-10.274 20.507-4.933 69.158 17.095 85.928 30.251 23.021 64.117 34.097 98.962 12.638 11.278-6.917 26.609-18.592 30.129-48.367 3.071-14.296 7.771-25.521 4.295-40.483zM904.238 33.084h-83.209v488.269h83.209v-488.269zM1059.719 34.796h-83.196v488.241h83.196v-488.241z"  horiz-adv-x="1438" />

    
    <glyph glyph-name="zaizhipeixun" unicode="&#58943;" d="M618.808 254.424s-20.799 4.497-21.362 21.362v42.724s71.393 64.085 85.448 150.094c38.226 0 59.587 96.689 21.361 128.732-9.556 45.534 48.346 235.54-192.255 235.54s-182.698-206.308-192.817-235.54c-38.227-32.042-16.865-128.732 21.362-128.732 14.054-85.448 86.009-149.532 86.009-149.532v-42.724c0-15.178-21.362-21.361-21.362-21.361-64.085-11.243-342.91-150.095-342.91-277.702v-43.285h899.438v43.286c0 127.045-279.387 267.582-342.91 277.138zM469.276 211.701v21.362h85.448v-42.723l-21.362-21.362h-42.724l-21.362 21.362v21.362zM447.915-2.477c0 102.874 42.724 128.732 42.724 128.732h42.723s42.724-23.048 42.724-128.732h-128.171z"  horiz-adv-x="1024" />

    
    <glyph glyph-name="gongkaopeixun" unicode="&#58944;" d="M51.2 158.72v235.52c53.509 4.608 158.761 21.827 174.080 66.56 5.371 7.931 5.279 20.915 5.12 35.84-62.397 55.834-114.78 288.256 0 327.68 29.466 23.26 80.348 10.327 117.76 5.12 14.121-17.147 65.659-50.586 51.2-76.8-24.156-24.945-52.25-47.165-66.56-81.92-28.826-70.016-28.595-203.776 0-271.36 12.227-28.908 35.297-55.629 51.2-81.92h-10.24c-41.825-32.159-123.167-24.402-174.080-46.080-25.339-10.788-62.106-39.163-76.8-61.44-7.823-11.863-9.426-43.465-20.48-51.2h-51.2zM686.080 834.56h87.040c71.68-23.552 106.061-162.33 71.68-256-17.92-48.809-54.272-55.296-56.32-122.88 10.624-6.707 16.159-19.492 25.6-25.6 16.435-10.639 37.652-8.018 51.2-20.48h-5.12l-107.52-122.88c-33.792 5.673-89.38 11.703-112.64 30.72h-5.12v5.12c65.454 49.894 93.839 240.763 51.2 343.040-16.384 39.276-49.582 60.288-71.68 92.16 7.936 9.999 7.716 24.576 15.36 35.84 12.861 18.944 39.839 25.426 56.32 40.96zM481.28 721.92c50.575 0.553 89.6-4.055 117.76-25.6 57.216-43.745 63.841-212.096 30.72-286.72-20.669-46.561-71.497-60.375-46.080-128 36.716-17.603 78.551-29.271 122.88-46.080-1.711-2.863-4.3-5.049-7.39-6.211-44.281-70.318-122.294-133.115-182.050-193.469l-61.44-71.68h-317.44l-5.12 15.36c-10.807 19.385 3.968 79.693 10.24 102.4 14.147 51.241 17.505 97.91 56.32 122.88 63.882 41.098 189.020 23.675 235.52 81.92 34.478 46.551-42.295 109.763-56.32 153.6-23.040 72.090-8.387 191.59 25.6 240.64l40.96 30.72c14.025 1.254 27.209 3.697 35.84 10.24zM865.28 394.24c14.848 0.307 27.996 0.251 35.84-5.12 27.136-8.463 45.343-30.561 46.080-66.56-103.649-99.511-240.886-338.79-399.36-363.52v5.12h-5.12l46.080 128c23.552 39.286 69.985 66.345 97.28 102.4 54.42 71.885 117.596 135.035 179.2 199.68zM865.28 378.88c-34.816-52.572 6.267-40.448 35.84-81.92h5.12v5.12c15.621 9.933 22.349 17.865 25.6 40.96-20.347 19.968-24.878 35.123-66.56 35.84zM829.44 337.92c-7.967-12.233-14.966-14.971-20.48-30.72 28.58-10.081 36.244-35.84 66.56-46.080v5.12c10.271 7.168 10.578 6.892 15.36 20.48zM967.68 158.72h-51.2c-10.511 25.815-25.743 42.593-30.72 71.68 33.444 22.579 48.174 64.573 81.92 87.040v-158.72zM793.6 296.96c-42.235-64.082-160.573-148.665-184.32-215.040 28.052-9.856 37.559-35.779 66.56-46.080 9.042 25.892 31.601 32.071 46.080 51.2 40.305 53.248 84.439 108.575 133.12 153.6v10.24c-21.77 14.5-34.249 36.659-61.44 46.080zM834.56 179.2h10.24c17.562-58.317 52.531-135.122 40.96-209.92-58.563-19.569-161.367-5.555-230.4-5.12v5.12h5.12c48.676 75.776 125.051 133.53 174.080 209.92zM599.040 71.68l-30.72-87.040h10.24c20.726 18.98 54.784 23.004 76.8 40.96z"  horiz-adv-x="1024" />

    
    <glyph glyph-name="lajitong" unicode="&#58882;" d="M768 563.2c-17.92 0-32-14.08-32-32v-430.08c0-20.48-16.64-37.12-37.12-37.12H325.12c-20.48 0-37.12 16.64-37.12 37.12V531.2c0 17.92-14.08 32-32 32s-32-14.08-32-32v-430.08C224 45.44 269.44 0 325.12 0h374.4c55.68 0 101.12 45.44 101.12 101.12V531.2c-0.64 17.28-14.72 32-32.64 32zM832 640H640v70.4c0 32-26.24 57.6-57.6 57.6H441.6c-32 0-57.6-26.24-57.6-57.6V640H192c-17.92 0-32-14.08-32-32s14.08-32 32-32h640c17.92 0 32 14.08 32 32s-14.08 32-32 32z m-384 64h128v-64H448v64zM448 192V428.8c0 17.92-14.08 32-32 32s-32-14.08-32-32V192c0-17.92 14.08-32 32-32s32 14.08 32 32zM640 192V428.8c0 17.92-14.08 32-32 32s-32-14.08-32-32V192c0-17.92 14.08-32 32-32s32 14.08 32 32z"  horiz-adv-x="1024" />

    
    <glyph glyph-name="paicha" unicode="&#58883;" d="M102.415 193.829H512c16.15 0 29.272-13.108 29.272-29.258S528.15 135.314 512 135.314H102.415a29.257 29.257 0 1 0 0 58.515m0 248.685h146.27a29.257 29.257 0 1 0 0-58.514h-146.27a29.257 29.257 0 1 0 0 58.514m234.042 204.8H102.415a29.257 29.257 0 1 0 0 58.515h234.042a29.257 29.257 0 1 0 0-58.515m351.086 73.143c-121.183 0-219.429-98.23-219.429-219.428 0-121.184 98.246-219.429 219.429-219.429S906.97 379.845 906.97 501.029c0 121.197-98.245 219.428-219.428 219.428m29.11-495.82c0.03-0.542 0.162-1.025 0.162-1.551v-204.8a29.272 29.272 0 0 0-58.544 0v204.8c0 0.541 0.132 1.01 0.161 1.55-139.835 14.541-248.817 132.71-248.817 276.393 0 153.497 124.445 277.942 277.928 277.942S965.47 654.526 965.47 501.03c0-143.682-108.983-261.852-248.817-276.393"  horiz-adv-x="1024" />

    
    <glyph glyph-name="lixian" unicode="&#58884;" d="M955.755 192.043c-5.696-100.139-88.278-179.776-188.075-179.776l-158.272-1.622-347.477 4.054c-115.84 0-214.486 96.533-219.051 214.784-4.587 109.824 66.517 205.162 166.293 228.074 4.566 80.854 38.976 156.886 97.494 211.2 61.93 57.92 142.208 85.675 225.92 76.032C659.925 731.52 765.44 628.907 787.2 496.171c5.76-33.792 6.89-66.347 2.325-98.944a172.97 172.97 0 0 0 116.95-60.331c35.562-39.85 52.757-90.496 49.301-144.853z m-74.518 118.4c-28.672 31.573-66.517 49.77-108.949 49.77h-3.413a18.56 18.56 0 0 0-13.803 6.059 19.264 19.264 0 0 0-3.456 15.787c6.89 35.2 8.021 71.616 1.152 106.816-19.477 117.76-112.363 207.573-224.747 220.906-72.277 8.491-143.36-15.786-198.442-67.968-53.888-50.986-85.995-123.797-85.995-201.493 0-8.512-5.717-17.003-14.912-18.197-89.472-13.355-154.837-97.11-151.381-194.176 3.413-99.563 87.146-182.102 185.792-182.102l254.229 0.064h87.317c0.086 0 0.128-0.064 0.214-0.064H767.68c81.45 0 149.12 64.32 153.707 146.838 2.304 43.733-11.52 86.208-40.15 117.76zM477.184 162.347l-178.73 172.608a14.464 14.464 0 0 1-20.31-0.299 14.336 14.336 0 0 1 0.405-20.31l188.16-181.695a14.464 14.464 0 0 1 11.456-3.947 14.293 14.293 0 0 1 26.048-1.45 14.421 14.421 0 0 1 7.211 3.925l184.96 184.96a14.464 14.464 0 0 1 0.043 20.33 14.336 14.336 0 0 1-20.31-0.042l-170.24-170.262V510.464a14.315 14.315 0 1 1-28.693 0v-348.117z"  horiz-adv-x="1024" />

    
    <glyph glyph-name="qikan" unicode="&#58886;" d="M0-128V896h1024v-1024H0zM839.68 855.04H655.36v-304.407l103.657 86.365 80.663-80.687V855.04z m143.36 0h-102.4v-397.591L756.503 581.585 614.4 463.151V855.04H40.96v-942.08h942.08V855.04z m-102.4-491.52H143.36v40.96h737.28v-40.96z m0-163.84H143.36v40.96h737.28v-40.96z m0-163.84H143.36V76.8h737.28v-40.96zM148.76 724.48h324.002v-226.932H148.76V724.48z m41.192-186.74h240.803V684.544H189.952V537.74z"  horiz-adv-x="1024" />

    
    <glyph glyph-name="qikan1" unicode="&#58887;" d="M1013.798911 870.631987A61.246693 61.246693 0 0 1 962.409169 895.97486H239.544798c-34.238828 0-68.477656-25.342873-68.477657-67.518661v-101.437491H68.414657C34.174828 727.018708 0 701.675835 0 659.373048v-604.145968c0-97.085513 81.277592-173.179131 179.579099-173.17913h778.669091c34.175828 0 68.350657 25.342873 68.350657 67.58166V828.456199a79.7416 79.7416 0 0 1-12.799936 42.175788zM949.545234-33.282475H179.579099c-55.549721 0-102.652485 46.334767-102.652485 101.117492v587.377052h89.789549v-557.617201c0-25.279873 17.214914-37.951809 38.526807-37.95181 25.663871 0 38.590806 16.831916 38.590806 37.95181V819.945242H949.545234v-853.227717zM598.896994 655.213069h222.458883c25.599872 0 38.526807 16.830916 38.526807 38.014809 0 25.343873-17.214914 37.95081-38.526807 37.950809H598.896994c-25.726871 0-38.589806-16.894915-38.589806-37.949809 0.063-21.184894 21.438892-38.015809 38.589806-38.015809zM376.375111 291.893892H654.446715c25.663871 0 38.527807 16.959915 38.527807 38.01481V549.551599c0 25.342873-17.215914 38.014809-38.527807 38.014809H376.375111c-25.599872 0-38.463807-16.895915-38.463807-38.014809v-215.418919c0-21.055894 21.375893-42.239788 38.463807-42.239788z m42.814785 223.930876h201.018991V372.147489h-201.018991V515.824768z m397.942002-274.553622h-440.757787c-25.598872 0-38.462807-17.023915-38.462807-38.079808 4.223979-21.118894 21.375893-37.94981 38.463807-37.94981h440.692788c25.535872 0 38.462807 16.830916 38.462807 37.94981 4.351978 25.343873-12.862935 38.079809-38.398808 38.079808z m0-109.885448h-440.757787c-25.598872 0-38.462807-16.895915-38.462807-38.079809 4.223979-20.989895 21.375893-38.078809 38.463807-38.078809h440.692788c25.535872 0 38.462807 17.087914 38.462807 38.079809 4.351978 21.182894-12.862935 38.078809-38.398808 38.078809z m-444.980766 523.827371a38.079809 38.079809 0 0 1 38.526807 38.014809c0 21.119894-17.151914 37.95081-38.526807 37.950809s-38.526807-16.830916-38.526807-37.949809c0-21.184894 17.150914-38.015809 38.526807-38.015809z m106.941463 0a38.079809 38.079809 0 0 1 38.526807 38.014809 38.079809 38.079809 0 0 1-38.526807 37.950809 38.142809 38.142809 0 0 1-38.527806-37.949809c0-21.184894 17.151914-38.015809 38.527806-38.015809z m346.551261-71.86964c-21.439892 0-38.654806-16.895915-38.654806-37.951809s17.214914-38.014809 38.654806-38.014809c21.311893 0 38.526807 16.959915 38.526806 38.014809s-17.214914 37.95081-38.526806 37.950809z m0-105.59847c-21.439892 0-38.654806-16.894915-38.654806-38.014809s17.214914-38.014809 38.654806-38.014809c21.311893 0 38.526807 16.959915 38.526806 38.014809s-17.214914 38.014809-38.526806 38.014809z m0-105.661469c-21.439892 0-38.654806-16.894915-38.654806-37.95081s17.214914-38.014809 38.654806-38.014809c21.311893 0 38.526807 16.959915 38.526806 38.014809s-17.214914 37.95081-38.526806 37.95081z"  horiz-adv-x="1026" />

    
    <glyph glyph-name="lvdu" unicode="&#58888;" d="M800.213 464.232c-0.004-3.591 0.066-7.185-0.017-10.776-0.428-18.571-8.534-27.305-27.49-27.203-10.005 0.055-13.469-2.868-13.58-13.011-0.94-86.108-2.821-67.213-56.9-115.661a64.608 64.608 0 0 0-7.291-5.656c-25.956-17.266-37.934-35.995-34.72-72.397 8.854-100.304-90.378-175.913-188.57-149.184-78.184 21.283-123.577 96.1-106.073 175.71 2.188 9.957 0.14 16.179-7.767 22.485-24.436 19.486-48.189 39.826-72.46 59.523-12.435 10.092-18.397 22.895-18.847 38.686-0.453 15.888-1.502 31.766-1.604 47.652-0.06 9.084-3.398 12.424-12.72 12.748-21.848 0.758-27.557 7.117-28.284 29.158a234.007 234.007 0 0 0 0.122 18.468c0.874 18.98 10.816 29.878 30.075 29.213 15.29-0.527 21.478 3.239 25.559 19.553 17.307 69.193 53.367 125.937 120.48 156.402 80.44 36.515 207.076 34.42 282.478-39.89 30.232-29.793 47.784-67.466 59.635-107.868 1.444-4.923 3.415-9.755 4.26-14.778 1.762-10.495 7.634-13.927 18.099-14.329 32.966-1.265 35.663-4.63 35.615-38.845zM302.47 405.237c0-5.642 0.695-11.387-0.125-16.906-2.914-19.615 5.588-33.027 20.935-44.365 16.053-11.858 31.76-24.44 46.093-38.285 10.878-10.507 17.003-8.424 25.373 2.572 22.39 29.414 52.744 47.48 88.797 53.428 57.455 9.478 106.803-6.916 143.72-53.255 9.964-12.507 16.426-12.778 27.675-2.188 16.393 15.431 33.836 29.88 51.814 43.445 9.57 7.22 14.405 15.53 14.766 27.014 1.733 55.107-0.595 109.655-20.397 162.109-16.49 43.683-42.96 79.122-84.026 102.34-31.62 17.877-66.423 23.283-102.221 23.77-79.618 1.083-150.56-30.372-185.652-110.976-20.584-47.284-26.799-97.519-26.752-148.703z m101.09-190.657c-0.424-59.907 44.761-106.991 103.17-107.506 64.624-0.57 112.626 43.963 113.934 105.701 1.284 60.534-47.833 109.682-110.2 110.273-57.784 0.547-106.483-48.865-106.904-108.468zM668.473 455.548c-0.207-38.194-31.376-69.228-69.661-69.357-38.202-0.13-70.948 32.656-70.452 70.537 0.51 39.014 32.307 70.444 70.861 70.045 38.769-0.4 69.465-31.97 69.252-71.225z m-172.682 1.164c-0.134-38.533-32.22-70.574-70.534-70.436-37.84 0.137-69.825 32.838-69.746 71.308 0.08 38.714 32.384 69.272 73.005 69.06 36.218-0.19 67.405-32.609 67.275-69.932z m7.207-191.19c0.266-10.401-9.723-20.188-20.755-20.336-10.855-0.145-20.615 9.495-20.12 20.724 0.521 11.806 7.192 19.068 18.876 20.474 10.907 1.31 21.708-9.423 22-20.862z m-30.25-51.454c-0.428-11.166-10.227-19.738-21.69-18.974-11.67 0.776-18.707 9.356-18.205 22.057 0.519 13.128 9.564 17.526 20.408 18.327 10.317 0.762 19.9-10.633 19.487-21.41z m100.926 21.487c9.85-1.185 16.849-7.664 17.43-19.546 0.57-11.64-10.103-21.346-21.751-20.765-10.527 0.525-19.204 10.927-18.516 22.197 0.631 10.364 9.926 18.455 22.837 18.114z m-73.19-70.118c0.312-10.586-9.404-20.15-20.745-20.112-12.467 0.043-18.827 6.967-19.553 18.943-0.697 11.527 8.565 21.461 19.333 21.496 11.077 0.037 20.638-9.232 20.965-20.327z m61.872-0.34c0.12-11.357-9.238-21.333-19.752-21.057-10.261 0.269-20.71 11.1-19.92 21.55 0.892 11.81 7.862 18.783 19.592 19.798 11.121 0.961 19.956-8.438 20.08-20.29z m-1.106 100.24c0.1-11.738-8.395-20.442-20-20.495-11.003-0.052-19.973 9.177-19.694 20.933 0.292 12.298 7.547 18.601 19.281 19.505 11.55 0.89 20.313-8.037 20.413-19.944z"  horiz-adv-x="1024" />

    
    <glyph glyph-name="qita" unicode="&#58890;" d="M486.298 451.896c0-25.82-20.936-46.76-46.766-46.76H112.2c-25.82 0-46.761 20.94-46.761 46.76V779.233c0 25.826 20.935 46.761 46.76 46.761h327.338c25.825 0 46.766-20.935 46.766-46.76v-327.338zM967.112 451.896c0-25.82-20.941-46.76-46.761-46.76H593.014c-25.83 0-46.761 20.94-46.761 46.76V779.233c0 25.826 20.93 46.761 46.76 46.761h327.338c25.82 0 46.76-20.935 46.76-46.76v-327.338zM486.298-18.324c0-25.82-20.936-46.761-46.766-46.761H112.2c-25.82 0-46.761 20.94-46.761 46.76V309.008c0 25.83 20.935 46.756 46.76 46.756h327.338c25.825 0 46.766-20.925 46.766-46.756v-327.331zM920.35 355.763H593.015c-25.83 0-46.761-20.94-46.761-46.76V-18.34c0-25.82 20.93-46.76 46.76-46.76h327.338c25.82 0 46.76 20.94 46.76 46.76V309.002c0 25.826-20.94 46.761-46.76 46.761z m13.2-347.996c0-21.699-17.602-39.301-39.301-39.301H619.116c-21.71 0-39.302 17.602-39.302 39.301V282.906c0 21.698 17.593 39.3 39.302 39.3h275.133c21.699 0 39.301-17.602 39.301-39.3v-275.139z"  horiz-adv-x="1024" />

    
    <glyph glyph-name="fenxiang" unicode="&#58891;" d="M99.2-121.6c-51.2 0-89.6 38.4-89.6 89.6V678.4c0 48 22.4 96 73.6 96h217.6v-64H99.2c-12.8 0-22.4-9.6-22.4-22.4v-726.4c0-12.8 9.6-22.4 22.4-22.4H1008c12.8 0 25.6 9.6 25.6 22.4V227.2h67.2v-265.6c0-48-41.6-89.6-92.8-89.6H99.2v6.4M524.8 416c92.8 131.2 240 220.8 444.8 268.8L720 819.2l35.2 64L1113.6 688S944 419.2 908.8 364.8c-3.2-6.4-6.4-9.6-6.4-9.6l-60.8 38.4 137.6 217.6c-182.4-41.6-316.8-121.6-396.8-236.8-86.4-121.6-83.2-195.2-83.2-195.2h-73.6c3.2 0-32 48 99.2 236.8z m377.6-48"  horiz-adv-x="1120" />

    
    <glyph glyph-name="huancun" unicode="&#58892;" d="M146.473 474.888l-38.684-38.99 384.33-381.866c27.122-27.142 69.21-27.142 96.402 0.07l381.584 381.865-38.823 38.852-364.917-365.187V896H511.46v-783.76L146.473 474.889zM0-74.105h1077.895V-128H0v53.895z"  horiz-adv-x="1078" />

    
    <glyph glyph-name="gouwuche" unicode="&#58893;" d="M684.088 141.813H327.602c-69.052 0-125.228 56.177-125.228 125.23V442.938c0 69.046 56.176 125.218 125.228 125.218h324.995c11.194 0 20.27-9.074 20.27-20.268 0-11.193-9.075-20.268-20.27-20.268H327.602c-46.702 0-84.693-37.986-84.693-84.682v-175.897c0-46.701 37.991-84.693 84.693-84.693h356.486c46.7 0 84.692 37.992 84.692 84.693 0-0.01-0.117 212.23-0.117 292.11 0 39.624 11.137 70.139 33.11 90.704 29.691 27.784 67.9 25.602 69.526 25.483 11.171-0.742 19.625-10.396 18.883-21.565-0.74-11.172-10.325-19.61-21.56-18.882-0.067 0-22.854 0.89-39.478-14.943-13.239-12.613-19.947-33.068-19.947-60.799 0-79.867 0.118-292.099 0.118-292.099 0-69.061-56.175-125.238-125.227-125.238zM653.033 399.384H359.288c-11.192 0-20.267 9.075-20.267 20.267 0 11.194 9.075 20.269 20.267 20.269h293.745c11.192 0 20.267-9.075 20.267-20.269 0-11.192-9.073-20.267-20.267-20.267zM653.033 271.069H359.288c-11.192 0-20.267 9.076-20.267 20.268 0 11.194 9.075 20.268 20.267 20.268h293.745c11.192 0 20.267-9.073 20.267-20.268 0-11.191-9.073-20.268-20.267-20.268zM747.76 73.707a39.612 39.612 0 1 1 81.07 0 39.612 39.612 0 1 1-81.07 0zM191.902 73.707a39.612 39.612 0 1 1 81.07 0 39.612 39.612 0 1 1-81.07 0z"  horiz-adv-x="1024" />

    
    <glyph glyph-name="duihao" unicode="&#58894;" d="M512 832C265.6 832 64 630.4 64 384s201.6-448 448-448 448 201.6 448 448S758.4 832 512 832z m-89.6-672l-224 224 62.72 62.72L422.4 285.44l340.48 340.48 62.72-62.72L422.4 160z"  horiz-adv-x="1024" />

    
    <glyph glyph-name="huancun1" unicode="&#58896;" d="M249.6 371.2h512-512zM796.8 364.8l-217.6-176c-38.4-38.4-99.2-38.4-134.4 0l-227.2 176c-38.4 38.4-35.2 118.4 25.6 131.2H336v96c0 54.4 41.6 96 96 96h160c54.4 0 96-41.6 96-96v-96h96c64-25.6 57.6-92.8 12.8-131.2zM768 464H656V592c0 35.2-28.8 64-64 64H432c-35.2 0-64-28.8-64-64v-128H246.4c-25.6-12.8-32-51.2-6.4-76.8l224-176c25.6-25.6 64-25.6 89.6 0l217.6 176C800 412.8 816 457.6 768 464zM224 112h576c9.6 0 16-6.4 16-16s-6.4-16-16-16H224c-9.6 0-16 6.4-16 16s6.4 16 16 16z"  horiz-adv-x="1024" />

    
    <glyph glyph-name="dangzhengwenjian" unicode="&#58900;" d="M317.686 93.22V735.386h-56.08c-31.523 0-57.082-25.56-57.082-57.083v-342.487h-11.945c-31.524 0-49.751-25.554-49.751-57.083v-285.4c0-31.518 18.237-57.077 49.75-57.077h638.849l-456.643 96.758c-35.553 7.265-57.098 28.687-57.098 60.206zM824.09 731.863L410.255 831.754c-31.523 0-57.083-25.559-57.083-57.083v-656.43c0-31.518 22.692-49.7 57.083-54.989l470.917-108.267V674.78c0 31.524-25.553 57.083-57.082 57.083zM764.923 256.23l-31.247 27.776c-31.248-25.067-66.688-39.09-106.732-40.786-40.136-1.71-76.564 9.314-109.302 32.763-1.991-1.203-2.631-2.652-2.089-5.135 3.231-14.72-7.28-30.32-22.154-33.167-12.16-2.33-23.562 2.55-30.095 12.866a28.17 28.17 0 0 0 1.495 32.272c6.174 8.09 14.51 11.888 24.821 10.977 0.902-0.077 1.992-0.087 2.724 0.338 2.166 1.208 2.233 2.345 0.502 4.244a173.01 173.01 0 0 0-21.919 30.075c-0.88 1.52-0.937 2.499 0.338 3.902 7.778 8.57 15.437 17.244 23.112 25.891 0.527 0.59 0.937 1.27 1.495 2.033 28.872-30.249 63.565-46.858 104.986-48.292 27.822-0.962 53.719 5.99 77.916 20.87L561.239 437.503l-35.656-39.987-50.493 44.959c2.017 2.33 3.896 4.551 5.832 6.722 13.532 15.196 27.09 30.377 40.622 45.568 12.36 13.886 24.76 27.735 37.017 41.718 2.284 2.606 4.183 3.691 8.003 2.816 17.47-4.004 33.454-0.369 47.698 10.603 0.25 0.195 0.537 0.333 1.029 0.625l25.989-23.112-35.61-40.012c39.645-35.313 79.191-70.503 119.174-106.118 22.83 46.04 22.6 91.577-1.767 136.064-24.223 44.263-62.776 68.926-112.568 76.483l0.184 0.773c3.093 0.328 6.19 0.83 9.283 0.952 24.484 0.994 48.292-2.421 71.209-11.29a168.95 168.95 0 0 0 46.064-26.726c20.854-16.972 36.716-37.744 47.729-62.218 7.02-15.621 11.474-31.97 13.66-48.968 1.848-14.402 1.961-28.83 0.256-43.212-2.765-23.399-9.81-45.507-21.253-66.13-0.83-1.506-0.65-2.227 0.625-3.349 10.004-8.796 19.927-17.68 29.88-26.557 0.348-0.307 0.614-0.686 1.085-1.214a119468.32 119468.32 0 0 0-44.308-49.664z"  horiz-adv-x="1024" />

    
    <glyph glyph-name="dianzizhengji" unicode="&#58901;" d="M306.449 619.665c10.586 13.364 22.254 25.784 35.01 36.896l-63.204 63.235c-9.922 9.958-26.027 9.958-35.987 0-9.925-9.924-9.925-26.026 0-35.95l64.182-64.18h-0.001z m205.558 101.666h0.735c8.346 0 16.593-0.523 24.698-1.362V806.087c0 14.043-11.391 25.433-25.436 25.433s-25.4-11.389-25.4-25.433v-86.102c8.105 0.82 16.348 1.346 24.699 1.346h0.704z m205.615-101.633l64.113 64.146c9.956 9.925 9.956 26.027 0 35.95-9.89 9.958-26.027 9.958-35.989 0l-63.24-63.235c12.79-11.108 24.46-23.515 35.116-36.86zM243.976 439.34c0 12.28 0.981 24.299 2.413 36.177h-90.42c-14.01 0-25.402-11.391-25.402-25.433 0-14.045 11.393-25.433 25.401-25.433h88.324a337.6 337.6 0 0 0-0.317 14.69l0.001-0.001z m624.053 36.174h-90.385c1.466-11.878 2.412-23.898 2.412-36.177 0-4.994-0.105-9.853-0.28-14.69h88.253c14.048 0 25.4 11.388 25.4 25.432s-11.352 25.434-25.4 25.434v0.001z m-137.027-208.47c-10.341-15.161-21.274-28.26-31.79-40.105l46.535-46.574c9.958-9.924 26.098-9.924 35.989 0 9.956 9.957 9.956 26.026 0 35.987L731 267.044h0.001z m-488.736-50.691c-9.924-9.957-9.924-26.026 0-35.987 9.958-9.924 26.066-9.924 35.987 0l46.574 46.605c-10.514 11.81-21.452 24.943-31.794 40.07l-50.764-50.693-0.003 0.005z m502.5 222.987c0.035 52.737-17.535 101.51-47.131 140.57-25.959 34.308-61.213 61.21-102.055 77.001l0.21 1.12-17.433 5.118a237.357 237.357 0 0 1-41.787 8.125l-2.026 0.225h-0.069l-0.072 0.018c-6.985 0.663-14.255 1.172-21.835 1.172h-1.116c-7.583 0-14.85-0.51-21.838-1.172l-0.105-0.018-2.095-0.225a236.124 236.124 0 0 1-41.736-8.125l-16.874-4.924 0.174-1.12c-41.051-15.773-76.514-42.745-102.615-77.191-29.557-39.06-47.131-87.83-47.131-140.57 0-37.82 6.535-68.912 16.7-94.644 15.267-38.588 38.57-64.652 57.299-84.424 9.364-9.854 17.61-18.272 23.197-25.468 5.73-7.232 8.49-12.824 9.292-17.26 4.086-21.593 4.506-48.844 4.506-55.76v-1.992c0-31.231 25.297-56.459 56.497-56.494h130.58c31.237 0.034 56.496 25.298 56.496 56.494v1.921c-0.034 6.849 0.42 34.17 4.507 55.796 0.557 3.003 1.886 6.43 4.506 10.62 4.471 7.303 12.929 16.386 23.409 27.323 15.653 16.455 35.565 37.205 51.395 66.71 15.863 29.468 27.216 67.535 27.146 117.176l0.005-0.002z m-53.351-80.13c-12.474-31.462-31.202-52.755-49.262-71.829-9.017-9.539-17.856-18.412-25.575-28.232-7.615-9.678-14.427-20.754-17.048-34.343-4.927-26.518-5.138-54.957-5.166-63.097v-1.92c-0.034-9.434-7.618-17.05-17.05-17.05h-130.58c-4.786 0-8.944 1.887-12.09 4.995-3.106 3.146-4.958 7.27-4.958 12.052v1.99c-0.034 8.208-0.28 36.58-5.207 63.025-1.675 8.977-5.345 17.017-9.78 24.143-7.86 12.472-17.922 22.74-28.303 33.748-15.683 16.348-32.283 34.012-45.21 58.101-12.892 24.107-22.465 54.744-22.502 98.538 0.034 43.933 14.535 84.252 39.131 116.759 24.598 32.475 59.188 57.001 99.12 68.947l4.926 1.5c9.643 2.482 19.53 4.454 29.714 5.522h0.07l1.887 0.21c5.973 0.574 11.771 0.944 17.503 0.977l1.013-0.106 1.013 0.07c5.692 0 11.526-0.385 17.468-0.944h-0.073l1.958-0.21h0.034c10.165-1.066 20.055-3.002 29.662-5.521l4.995-1.501c39.933-11.946 74.52-36.475 99.119-68.947 24.557-32.508 39.094-72.828 39.094-116.759 0.003-33.36-5.584-59.11-13.9-80.125l-0.003 0.007z m-154.88 312.057h0.072-0.072z m-49.124 0h0.069-0.069z m89.37-583.414H447.247c-13.38 0-24.28-10.832-24.28-24.317 0-13.345 10.903-24.25 24.28-24.25h129.534c13.382 0 24.281 10.903 24.281 24.25 0 13.489-10.903 24.317-24.28 24.317z m0-61.28H447.247c-13.38 0-24.28-10.864-24.28-24.248 0-13.45 10.903-24.318 24.28-24.318h129.534c13.382 0 24.281 10.865 24.281 24.318 0 13.382-10.903 24.248-24.28 24.248z m-53.419-61.768h-66.71c0-0.734-0.14-1.43-0.14-2.203 0-13.417 20.614-24.28 39.671-24.28h31.654c19.076 0 39.654 10.864 39.654 24.28 0 0.767-0.105 1.466-0.105 2.203h-44.024z"  horiz-adv-x="1024" />

    
    <glyph glyph-name="jilu" unicode="&#58902;" d="M230.007 20.851c-28.829 0-39.695 10.871-39.695 39.699V661.281c0 28.986 13.791 36.776 42.619 36.776h51.229c9.665 0 20.377 12.231 20.377 27.192 0 11.664-7.875 27.198-19.399 27.198h-72.665c-48.152 0-76.553-28.4-76.553-76.557v-628.826c0-48.15 30.346-76.553 76.553-76.553h269.569s-25.369 27.314-36.505 50.338h-215.53v0.002z m0 0M684.985 698.058h58.401c28.828 0 36.771-9.895 36.771-38.728v-209.605c12.155-5.925 41.381-20.417 52.446-27.896V675.892c0 48.156-28.401 76.557-76.554 76.557h-71.064c-11.638 0-20.377-15.858-20.377-28.171 0-13.666 10.718-26.22 20.377-26.22z m0 0M268.851 605.411c0-21.661 14.534-41.069 36.196-41.069h358.43c21.509 0 36.195 19.404 36.195 41.069 0 21.662-14.529 41.062-36.195 41.062h-74.805v88.833c0 34.442-27.892 62.334-62.334 62.334h-84.153c-34.442 0-62.339-27.892-62.339-62.334v-88.833h-74.8c-21.662 0-36.195-19.4-36.195-41.062zM484.258 758.68c22.757 0 41.3-18.544 41.3-41.296 0-22.751-18.543-41.299-41.3-41.299-22.751 0-41.293 18.548-41.293 41.299 0 22.752 18.542 41.296 41.293 41.296z m0 0M609.44 471.385H305.046c-21.662 0-36.196-19.403-36.196-41.063 0-21.661 14.534-41.065 36.196-41.065h159.268c37.714 38.334 90.893 69.816 145.126 82.128z m0 0M268.851 260.037c0-21.662 13.557-41.066 35.218-41.066h92.05c4.06 29.712 12.088 58.938 31.149 82.132H305.046c-21.662 0-36.195-19.406-36.195-41.066z m0 0M673.956 398.609c-118.275 0-214.124-95.846-214.124-214.125 0-118.285 95.843-214.124 214.124-214.124 118.285 0 214.124 95.839 214.124 214.124 0 118.28-95.839 214.125-214.124 214.125z m148.365-163.013L657.908 71.187c-5.299-5.304-12.313-7.947-19.327-7.947-7.011 0-14.02 2.644-19.323 7.947l-93.501 93.502c-10.601 10.6-10.601 27.896 0 38.492 10.596 10.602 27.892 10.602 38.492 0l74.332-74.332 145.086 145.087c10.601 10.596 27.9 10.596 38.498 0 10.906-10.44 10.906-27.739 0.156-38.34z m0 0"  horiz-adv-x="1024" />

    
    <glyph glyph-name="jingbao" unicode="&#58903;" d="M512 641.5a27 27 0 0 1 27 27v132a27 27 0 0 1-54 0v-132a27 27 0 0 1 27-27z m129.2-34.58a27 27 0 0 1 36.88 9.88l66 114.28a27 27 0 1 1-46.77 27l-66-114.28a27 27 0 0 1 9.89-36.88z m255.63-1.6a27 27 0 0 1-36.88 9.88l-114.28-66a27 27 0 1 1 27-46.77l114.28 66a27 27 0 0 1 9.88 36.89zM345.92 616.8a27 27 0 0 1 46.77 27l-66 114.28a27 27 0 0 1-46.77-27z m-94.58-114.34a27 27 0 1 1 27 46.77l-114.28 66a27 27 0 0 1-27-46.77zM790.75 142H745V341.15a231.22 231.22 0 0 1-68.29 164.58c-44.12 44.12-102.51 68.42-164.51 68.42a231.58 231.58 0 0 1-164.68-68.42C303.4 461.61 279 403.16 279 341.15V142h-45.75c-55.62 0-100.87-45.38-100.87-101s45.25-101 100.87-101h557.5c55.62 0 100.87 45.38 100.87 101s-45.25 101-100.87 101zM333 341.15c0 47.58 18.81 92.47 52.73 126.4a177.86 177.86 0 0 0 126.46 52.6c47.58 0 92.38-18.68 126.3-52.6A177.61 177.61 0 0 0 691 341.15V142H333zM790.75-6h-557.5a47 47 0 0 0 0 94h557.5a47 47 0 0 0 0-94z"  horiz-adv-x="1024" />

    
    <glyph glyph-name="paicha1" unicode="&#58904;" d="M102.415 193.829H512c16.15 0 29.272-13.108 29.272-29.258S528.15 135.314 512 135.314H102.415a29.257 29.257 0 1 0 0 58.515m0 248.685h146.27a29.257 29.257 0 1 0 0-58.514h-146.27a29.257 29.257 0 1 0 0 58.514m234.042 204.8H102.415a29.257 29.257 0 1 0 0 58.515h234.042a29.257 29.257 0 1 0 0-58.515m351.086 73.143c-121.183 0-219.429-98.23-219.429-219.428 0-121.184 98.246-219.429 219.429-219.429S906.97 379.845 906.97 501.029c0 121.197-98.245 219.428-219.428 219.428m29.11-495.82c0.03-0.542 0.162-1.025 0.162-1.551v-204.8a29.272 29.272 0 0 0-58.544 0v204.8c0 0.541 0.132 1.01 0.161 1.55-139.835 14.541-248.817 132.71-248.817 276.393 0 153.497 124.445 277.942 277.928 277.942S965.47 654.526 965.47 501.03c0-143.682-108.983-261.852-248.817-276.393"  horiz-adv-x="1024" />

    
    <glyph glyph-name="lixian1" unicode="&#58905;" d="M955.755 192.043c-5.696-100.139-88.278-179.776-188.075-179.776l-158.272-1.622-347.477 4.054c-115.84 0-214.486 96.533-219.051 214.784-4.587 109.824 66.517 205.162 166.293 228.074 4.566 80.854 38.976 156.886 97.494 211.2 61.93 57.92 142.208 85.675 225.92 76.032C659.925 731.52 765.44 628.907 787.2 496.171c5.76-33.792 6.89-66.347 2.325-98.944a172.97 172.97 0 0 0 116.95-60.331c35.562-39.85 52.757-90.496 49.301-144.853z m-74.518 118.4c-28.672 31.573-66.517 49.77-108.949 49.77h-3.413a18.56 18.56 0 0 0-13.803 6.059 19.264 19.264 0 0 0-3.456 15.787c6.89 35.2 8.021 71.616 1.152 106.816-19.477 117.76-112.363 207.573-224.747 220.906-72.277 8.491-143.36-15.786-198.442-67.968-53.888-50.986-85.995-123.797-85.995-201.493 0-8.512-5.717-17.003-14.912-18.197-89.472-13.355-154.837-97.11-151.381-194.176 3.413-99.563 87.146-182.102 185.792-182.102l254.229 0.064h87.317c0.086 0 0.128-0.064 0.214-0.064H767.68c81.45 0 149.12 64.32 153.707 146.838 2.304 43.733-11.52 86.208-40.15 117.76zM477.184 162.347l-178.73 172.608a14.464 14.464 0 0 1-20.31-0.299 14.336 14.336 0 0 1 0.405-20.31l188.16-181.695a14.464 14.464 0 0 1 11.456-3.947 14.293 14.293 0 0 1 26.048-1.45 14.421 14.421 0 0 1 7.211 3.925l184.96 184.96a14.464 14.464 0 0 1 0.043 20.33 14.336 14.336 0 0 1-20.31-0.042l-170.24-170.262V510.464a14.315 14.315 0 1 1-28.693 0v-348.117z"  horiz-adv-x="1024" />

    
    <glyph glyph-name="qikan2" unicode="&#58906;" d="M0-128V896h1024v-1024H0zM839.68 855.04H655.36v-304.407l103.657 86.365 80.663-80.687V855.04z m143.36 0h-102.4v-397.591L756.503 581.585 614.4 463.151V855.04H40.96v-942.08h942.08V855.04z m-102.4-491.52H143.36v40.96h737.28v-40.96z m0-163.84H143.36v40.96h737.28v-40.96z m0-163.84H143.36V76.8h737.28v-40.96zM148.76 724.48h324.002v-226.932H148.76V724.48z m41.192-186.74h240.803V684.544H189.952V537.74z"  horiz-adv-x="1024" />

    
    <glyph glyph-name="qikan3" unicode="&#58907;" d="M1013.798911 870.631987A61.246693 61.246693 0 0 1 962.409169 895.97486H239.544798c-34.238828 0-68.477656-25.342873-68.477657-67.518661v-101.437491H68.414657C34.174828 727.018708 0 701.675835 0 659.373048v-604.145968c0-97.085513 81.277592-173.179131 179.579099-173.17913h778.669091c34.175828 0 68.350657 25.342873 68.350657 67.58166V828.456199a79.7416 79.7416 0 0 1-12.799936 42.175788zM949.545234-33.282475H179.579099c-55.549721 0-102.652485 46.334767-102.652485 101.117492v587.377052h89.789549v-557.617201c0-25.279873 17.214914-37.951809 38.526807-37.95181 25.663871 0 38.590806 16.831916 38.590806 37.95181V819.945242H949.545234v-853.227717zM598.896994 655.213069h222.458883c25.599872 0 38.526807 16.830916 38.526807 38.014809 0 25.343873-17.214914 37.95081-38.526807 37.950809H598.896994c-25.726871 0-38.589806-16.894915-38.589806-37.949809 0.063-21.184894 21.438892-38.015809 38.589806-38.015809zM376.375111 291.893892H654.446715c25.663871 0 38.527807 16.959915 38.527807 38.01481V549.551599c0 25.342873-17.215914 38.014809-38.527807 38.014809H376.375111c-25.599872 0-38.463807-16.895915-38.463807-38.014809v-215.418919c0-21.055894 21.375893-42.239788 38.463807-42.239788z m42.814785 223.930876h201.018991V372.147489h-201.018991V515.824768z m397.942002-274.553622h-440.757787c-25.598872 0-38.462807-17.023915-38.462807-38.079808 4.223979-21.118894 21.375893-37.94981 38.463807-37.94981h440.692788c25.535872 0 38.462807 16.830916 38.462807 37.94981 4.351978 25.343873-12.862935 38.079809-38.398808 38.079808z m0-109.885448h-440.757787c-25.598872 0-38.462807-16.895915-38.462807-38.079809 4.223979-20.989895 21.375893-38.078809 38.463807-38.078809h440.692788c25.535872 0 38.462807 17.087914 38.462807 38.079809 4.351978 21.182894-12.862935 38.078809-38.398808 38.078809z m-444.980766 523.827371a38.079809 38.079809 0 0 1 38.526807 38.014809c0 21.119894-17.151914 37.95081-38.526807 37.950809s-38.526807-16.830916-38.526807-37.949809c0-21.184894 17.150914-38.015809 38.526807-38.015809z m106.941463 0a38.079809 38.079809 0 0 1 38.526807 38.014809 38.079809 38.079809 0 0 1-38.526807 37.950809 38.142809 38.142809 0 0 1-38.527806-37.949809c0-21.184894 17.151914-38.015809 38.527806-38.015809z m346.551261-71.86964c-21.439892 0-38.654806-16.895915-38.654806-37.951809s17.214914-38.014809 38.654806-38.014809c21.311893 0 38.526807 16.959915 38.526806 38.014809s-17.214914 37.95081-38.526806 37.950809z m0-105.59847c-21.439892 0-38.654806-16.894915-38.654806-38.014809s17.214914-38.014809 38.654806-38.014809c21.311893 0 38.526807 16.959915 38.526806 38.014809s-17.214914 38.014809-38.526806 38.014809z m0-105.661469c-21.439892 0-38.654806-16.894915-38.654806-37.95081s17.214914-38.014809 38.654806-38.014809c21.311893 0 38.526807 16.959915 38.526806 38.014809s-17.214914 37.95081-38.526806 37.95081z"  horiz-adv-x="1026" />

    
    <glyph glyph-name="qita1" unicode="&#58908;" d="M486.298 451.896c0-25.82-20.936-46.76-46.766-46.76H112.2c-25.82 0-46.761 20.94-46.761 46.76V779.233c0 25.826 20.935 46.761 46.76 46.761h327.338c25.825 0 46.766-20.935 46.766-46.76v-327.338zM967.112 451.896c0-25.82-20.941-46.76-46.761-46.76H593.014c-25.83 0-46.761 20.94-46.761 46.76V779.233c0 25.826 20.93 46.761 46.76 46.761h327.338c25.82 0 46.76-20.935 46.76-46.76v-327.338zM486.298-18.324c0-25.82-20.936-46.761-46.766-46.761H112.2c-25.82 0-46.761 20.94-46.761 46.76V309.008c0 25.83 20.935 46.756 46.76 46.756h327.338c25.825 0 46.766-20.925 46.766-46.756v-327.331zM920.35 355.763H593.015c-25.83 0-46.761-20.94-46.761-46.76V-18.34c0-25.82 20.93-46.76 46.76-46.76h327.338c25.82 0 46.76 20.94 46.76 46.76V309.002c0 25.826-20.94 46.761-46.76 46.761z m13.2-347.996c0-21.699-17.602-39.301-39.301-39.301H619.116c-21.71 0-39.302 17.602-39.302 39.301V282.906c0 21.698 17.593 39.3 39.302 39.3h275.133c21.699 0 39.301-17.602 39.301-39.3v-275.139z"  horiz-adv-x="1024" />

    
    <glyph glyph-name="quanbu" unicode="&#58909;" d="M341.333 170.667h512C876.885 170.667 896 151.552 896 128c0-23.552-19.115-42.667-42.667-42.667h-512c-23.552 0-42.666 19.115-42.666 42.667 0 23.552 19.114 42.667 42.666 42.667zM128 128a1 1 0 1 1 85.333 0A1 1 0 1 1 128 128z m213.333 298.667h512C876.885 426.667 896 407.552 896 384c0-23.552-19.115-42.667-42.667-42.667h-512c-23.552 0-42.666 19.115-42.666 42.667 0 23.552 19.114 42.667 42.666 42.667zM128 384a1 1 0 1 1 85.333 0A1 1 0 1 1 128 384z m213.333 298.667h512C876.885 682.667 896 663.552 896 640c0-23.552-19.115-42.667-42.667-42.667h-512c-23.552 0-42.666 19.115-42.666 42.667 0 23.552 19.114 42.667 42.666 42.667zM128 640a1 1 0 1 1 85.333 0A1 1 0 1 1 128 640z"  horiz-adv-x="1024" />

    
    <glyph glyph-name="lvdu1" unicode="&#58910;" d="M800.213 464.232c-0.004-3.591 0.066-7.185-0.017-10.776-0.428-18.571-8.534-27.305-27.49-27.203-10.005 0.055-13.469-2.868-13.58-13.011-0.94-86.108-2.821-67.213-56.9-115.661a64.608 64.608 0 0 0-7.291-5.656c-25.956-17.266-37.934-35.995-34.72-72.397 8.854-100.304-90.378-175.913-188.57-149.184-78.184 21.283-123.577 96.1-106.073 175.71 2.188 9.957 0.14 16.179-7.767 22.485-24.436 19.486-48.189 39.826-72.46 59.523-12.435 10.092-18.397 22.895-18.847 38.686-0.453 15.888-1.502 31.766-1.604 47.652-0.06 9.084-3.398 12.424-12.72 12.748-21.848 0.758-27.557 7.117-28.284 29.158a234.007 234.007 0 0 0 0.122 18.468c0.874 18.98 10.816 29.878 30.075 29.213 15.29-0.527 21.478 3.239 25.559 19.553 17.307 69.193 53.367 125.937 120.48 156.402 80.44 36.515 207.076 34.42 282.478-39.89 30.232-29.793 47.784-67.466 59.635-107.868 1.444-4.923 3.415-9.755 4.26-14.778 1.762-10.495 7.634-13.927 18.099-14.329 32.966-1.265 35.663-4.63 35.615-38.845zM302.47 405.237c0-5.642 0.695-11.387-0.125-16.906-2.914-19.615 5.588-33.027 20.935-44.365 16.053-11.858 31.76-24.44 46.093-38.285 10.878-10.507 17.003-8.424 25.373 2.572 22.39 29.414 52.744 47.48 88.797 53.428 57.455 9.478 106.803-6.916 143.72-53.255 9.964-12.507 16.426-12.778 27.675-2.188 16.393 15.431 33.836 29.88 51.814 43.445 9.57 7.22 14.405 15.53 14.766 27.014 1.733 55.107-0.595 109.655-20.397 162.109-16.49 43.683-42.96 79.122-84.026 102.34-31.62 17.877-66.423 23.283-102.221 23.77-79.618 1.083-150.56-30.372-185.652-110.976-20.584-47.284-26.799-97.519-26.752-148.703z m101.09-190.657c-0.424-59.907 44.761-106.991 103.17-107.506 64.624-0.57 112.626 43.963 113.934 105.701 1.284 60.534-47.833 109.682-110.2 110.273-57.784 0.547-106.483-48.865-106.904-108.468zM668.473 455.548c-0.207-38.194-31.376-69.228-69.661-69.357-38.202-0.13-70.948 32.656-70.452 70.537 0.51 39.014 32.307 70.444 70.861 70.045 38.769-0.4 69.465-31.97 69.252-71.225z m-172.682 1.164c-0.134-38.533-32.22-70.574-70.534-70.436-37.84 0.137-69.825 32.838-69.746 71.308 0.08 38.714 32.384 69.272 73.005 69.06 36.218-0.19 67.405-32.609 67.275-69.932z m7.207-191.19c0.266-10.401-9.723-20.188-20.755-20.336-10.855-0.145-20.615 9.495-20.12 20.724 0.521 11.806 7.192 19.068 18.876 20.474 10.907 1.31 21.708-9.423 22-20.862z m-30.25-51.454c-0.428-11.166-10.227-19.738-21.69-18.974-11.67 0.776-18.707 9.356-18.205 22.057 0.519 13.128 9.564 17.526 20.408 18.327 10.317 0.762 19.9-10.633 19.487-21.41z m100.926 21.487c9.85-1.185 16.849-7.664 17.43-19.546 0.57-11.64-10.103-21.346-21.751-20.765-10.527 0.525-19.204 10.927-18.516 22.197 0.631 10.364 9.926 18.455 22.837 18.114z m-73.19-70.118c0.312-10.586-9.404-20.15-20.745-20.112-12.467 0.043-18.827 6.967-19.553 18.943-0.697 11.527 8.565 21.461 19.333 21.496 11.077 0.037 20.638-9.232 20.965-20.327z m61.872-0.34c0.12-11.357-9.238-21.333-19.752-21.057-10.261 0.269-20.71 11.1-19.92 21.55 0.892 11.81 7.862 18.783 19.592 19.798 11.121 0.961 19.956-8.438 20.08-20.29z m-1.106 100.24c0.1-11.738-8.395-20.442-20-20.495-11.003-0.052-19.973 9.177-19.694 20.933 0.292 12.298 7.547 18.601 19.281 19.505 11.55 0.89 20.313-8.037 20.413-19.944z"  horiz-adv-x="1024" />

    
    <glyph glyph-name="quxiao" unicode="&#58911;" d="M512-19.2c-222.669 0-403.2 180.582-403.2 403.2S289.331 787.2 512 787.2 915.2 606.618 915.2 384 734.669-19.2 512-19.2z m0 864C257.51 844.8 51.2 638.592 51.2 384S257.485-76.8 512-76.8c254.49 0 460.8 206.208 460.8 460.8S766.49 844.8 512 844.8z m164.66-296.038c-11.342 11.212-29.697 11.212-41.063 0L511.82 424.909 389.81 547.02c-11.264 11.238-29.517 11.238-40.704 0-11.264-11.213-11.264-29.645 0-40.909l121.984-121.805L348.237 261.3c-11.315-11.213-11.315-29.645 0-41.165 11.34-11.212 29.721-11.212 41.062 0l122.855 122.983 122.01-122.112c11.238-11.239 29.516-11.239 40.754 0 11.239 11.213 11.239 29.645 0 40.909L552.883 383.718l123.75 123.853c11.341 11.495 11.341 29.62 0.026 41.19z m0 0"  horiz-adv-x="1024" />

    
    <glyph glyph-name="quanbu1" unicode="&#58912;" d="M541.582 745.813h930.702c97.85 0 97.85 150.187 0 150.187H541.582c-95.573 0-95.573-150.187 0-150.187zM227.556 896H75.093c-97.849 0-97.849-150.187 0-150.187h152.463c95.573 0 95.573 150.187 0 150.187z m1244.728-448.284H541.582c-97.849 0-97.849-150.187 0-150.187h930.702c97.85 0 97.85 150.187 0 150.187z m-1244.728 0H75.093c-97.849 0-97.849-150.187 0-150.187h152.463c95.573 0 95.573 150.187 0 150.187z m1244.728-425.53H541.582c-97.849 0-97.849-150.186 0-150.186h930.702c97.85 0 97.85 150.187 0 150.187z m-1244.728 0H75.093c-97.849 0-97.849-150.186 0-150.186h152.463c95.573 0 95.573 150.187 0 150.187z"  horiz-adv-x="1548" />

    
    <glyph glyph-name="saoyisao" unicode="&#58914;" d="M934.227 220.23c-21.198 0-38.384-17.186-38.384-38.384 0-0.862 0.04-1.714 0.094-2.561h-0.094v-127.949c0-28.265-22.913-51.178-51.178-51.178H179.336c-28.265 0-51.178 22.913-51.178 51.178V179.284h-0.094c0.056 0.847 0.094 1.7 0.094 2.56 0 21.2-17.187 38.385-38.384 38.385-21.2 0-38.385-17.186-38.385-38.384 0-0.862 0.04-1.714 0.095-2.561h-0.095v-153.537c0-56.53 45.828-102.359 102.359-102.359h716.506c56.53 0 102.359 45.828 102.359 102.359V179.284h-0.095c0.057 0.847 0.095 1.7 0.095 2.56-0.001 21.2-17.188 38.386-38.386 38.386zM89.773 525.251c21.028 0 38.097 16.913 38.37 37.876h0.014V716.664c0 28.265 22.913 51.178 51.178 51.178h665.328c28.265 0 51.178-22.913 51.178-51.178v-153.537h0.013c0.274-20.964 17.343-37.876 38.371-37.876s38.098 16.913 38.371 37.876h0.014V742.253c0 56.533-45.83 102.359-102.359 102.359H153.747c-56.53 0-102.359-45.826-102.359-102.359v-179.126h0.014c0.273-20.963 17.343-37.876 38.37-37.876zM985.406 409.59H38.594C17.395 409.59 0.21 392.406 0.21 371.206s17.185-38.385 38.384-38.385h946.812c21.199 0 38.384 17.187 38.384 38.385 0 21.2-17.185 38.384-38.384 38.384z"  horiz-adv-x="1024" />

    
    <glyph glyph-name="richang" unicode="&#58915;" d="M714.387 88.644H188.662c-18.553 0-33.647 14.86-33.647 33.127V763.643c0 18.266 15.094 33.126 33.647 33.126h525.725c18.553 0 33.646-14.861 33.646-33.126v-641.872c-0.001-18.267-15.094-33.127-33.646-33.127z m-507.154 51.411h488.58V745.359h-488.58v-605.304zM872.397-3.266c0-14.75-12.258-26.818-27.239-26.818H338.381c-14.982 0-27.24 11.568-27.24 25.705 0 14.138 12.258 25.706 27.24 25.706H792.94c14.981 0 27.239 12.067 27.239 26.818V612.533c0 14.749 11.75 26.817 26.11 26.817 14.359 0 26.109-12.068 26.109-26.817v-615.8h-0.001v0.001zM565.526 592.971c0-14.137-12.258-25.704-27.239-25.704H308.232c-14.982 0-27.24 11.568-27.24 25.704 0 14.138 12.258 25.706 27.24 25.706h230.055c14.981-0.001 27.239-11.568 27.239-25.706z m60.299-150.264c0-14.138-12.258-25.704-27.24-25.704H308.232c-14.982 0-27.24 11.567-27.24 25.704 0 14.138 12.258 25.704 27.24 25.704h290.352c14.983 0 27.241-11.566 27.241-25.704zM625.825 292.441c0-14.138-12.258-25.706-27.24-25.706H308.232c-14.982 0-27.24 11.568-27.24 25.706 0 14.137 12.258 25.704 27.24 25.704h290.352c14.983 0.001 27.241-11.566 27.241-25.704z"  horiz-adv-x="1024" />

    
    <glyph glyph-name="shangcheng" unicode="&#58917;" d="M853.76 896H171.093L0 576s0.427-109.76 0.427-128c0-58.112 42.666-85.333 42.666-85.333v-384c0-70.699-7.402-106.667 64-106.667H917.76c71.403 0 64 35.968 64 106.667v384s42.667 28.565 42.667 85.333V576L853.76 896z m85.333-917.333c0-35.328-6.954-64-42.666-64h-768c-35.712 0-42.667 28.672-42.667 64V85.333h853.333v-106.666z m0 149.333H83.584l2.176 213.333s192-22.485 192 42.667c0-58.005 234.667-57.856 234.667 0 0-58.581 213.333-55.339 213.333 0 0-60.757 213.333-42.667 213.333-42.667V128z m42.667 320c0-88.277-234.667-63.85-234.667 0h-42.666c0-72.448-170.667-71.445-170.667 0h-42.667c0-69.525-192-78.421-192 0h-42.666c0-67.541-213.334-79.552-213.334 0v85.333H981.76V448zM43.093 576L192.427 853.333h640L981.76 576H43.093z"  horiz-adv-x="1025" />

    
    <glyph glyph-name="shangxiajiantouhover" unicode="&#58918;" d="M214.647 533.357L512 830.71l297.352-297.353zM214.647 234.643L512-62.709l297.352 297.352z"  horiz-adv-x="1024" />

    
    <glyph glyph-name="remenshangpin" unicode="&#58919;" d="M520.438 367.17c-0.502 11.326-6.472 17.368-17.92 18.115-11.326-0.875-17.24-6.907-17.736-18.114m11.013 0c0.123 6.225 2.36 9.4 6.723 9.523 4.48-0.123 6.784-3.303 6.907-9.523m-30.244 11.95c-0.123 3.85-1.93 5.852-5.412 5.97-3.61-0.118-5.478-2.12-5.601-5.97v-6.533h-10.645v6.533c-0.123 3.85-1.991 5.852-5.601 5.97-3.487-0.118-5.289-2.12-5.417-5.97v-23.895c0.123-3.492 1.93-5.29 5.417-5.417 3.61 0.123 5.473 1.925 5.601 5.417v8.028h10.64v-8.028m76.922 20.346h6.528c3.113 0 4.67 1.496 4.67 4.486 0 2.862-1.68 4.29-5.033 4.29h-23.532c-3.235 0-4.848-1.428-4.848-4.29 0-2.99 1.49-4.486 4.48-4.486h6.722M520.438 367.17c-0.502 11.326-6.472 17.368-17.92 18.115-11.326-0.875-17.24-6.907-17.736-18.114m-5.601 11.95c-0.123 3.85-1.93 5.852-5.412 5.97-3.61-0.118-5.478-2.12-5.601-5.97v-6.533h-10.645v6.533c-0.123 3.85-1.991 5.852-5.601 5.97-3.487-0.118-5.289-2.12-5.417-5.97v-23.895c0.123-3.492 1.93-5.29 5.417-5.417 3.61 0.123 5.473 1.925 5.601 5.417v8.028h10.64v-8.028M520.438 367.17c-0.502 11.326-6.472 17.368-17.92 18.115-11.326-0.875-17.24-6.907-17.736-18.114m-5.601 11.95c-0.123 3.85-1.93 5.852-5.412 5.97-3.61-0.118-5.478-2.12-5.601-5.97v-6.533h-10.645v6.533c-0.123 3.85-1.991 5.852-5.601 5.97-3.487-0.118-5.289-2.12-5.417-5.97v-23.895c0.123-3.492 1.93-5.29 5.417-5.417 3.61 0.123 5.473 1.925 5.601 5.417v8.028h10.64v-8.028m76.922 20.346h6.528c3.113 0 4.67 1.496 4.67 4.486 0 2.862-1.68 4.29-5.033 4.29h-23.532c-3.235 0-4.848-1.428-4.848-4.29m3.302-56.55c-22.804-0.656-34.53-17.27-35.17-49.829 0.64-31.923 12.366-48.215 35.17-48.85 23.45 0.635 35.502 16.927 36.158 48.85-0.66 32.558-12.708 49.173-36.158 49.828zM736.312 877.225c-97.27-253.266-221.675-206.97-243.25-206.97 19.276 41.087 101.856 106.198 87.167 96.854-3.604-2.294-162.785 24.074-337.602-146.821-114.09-111.519-134.052-252.539-134.052-334.52 0-212.352 172.14-384.487 384.481-384.487S853.78 51.727 883.123 269.752C934.518 651.494 755.78 864.573 736.313 877.225zM404.045 211.144c-0.656-18.243-10.107-27.684-28.334-28.334-18.903 0.65-28.672 10.091-29.312 28.334v42.014h-55.696v-42.014c-0.655-18.243-10.43-27.684-29.312-28.334-18.242 0.65-27.694 10.091-28.334 28.334V336.21c0.64 20.173 10.092 30.612 28.334 31.263 18.883-0.656 28.657-11.09 29.312-31.263v-34.202h55.69V336.21c0.64 20.173 10.41 30.612 29.313 31.263 18.227-0.656 27.678-11.09 28.334-31.263v-125.066z m122.127-29.307c-59.93 2.596-90.864 33.218-92.815 91.842 2.59 58.62 33.54 90.215 92.815 94.777 59.925-3.912 91.192-35.513 93.799-94.777-1.951-59.279-33.219-89.891-93.799-91.842zM783.14 317.645h-34.202v-106.501c-0.66-18.243-10.424-27.684-29.312-28.334-18.242 0.65-27.689 10.091-28.334 28.334v106.5h-35.174c-15.637 0-23.445 7.814-23.445 23.445 0 14.987 8.459 22.472 25.4 22.472H781.18c17.587 0 26.383-7.485 26.383-22.472 0.005-15.631-8.146-23.444-24.422-23.444z"  horiz-adv-x="1024" />

    
    <glyph glyph-name="shangchang" unicode="&#58920;" d="M173.956 833.65h788.707c17.408 0 31.403 13.994 31.403 31.175C994.066 882.005 979.958 896 962.663 896H173.956c-17.408 0-31.403-13.995-31.403-31.175s13.995-31.175 31.403-31.175m936.732-284.33l-96.142 216.518H110.354l-67.129-195.47c-3.64-7.51-6.599-15.815-8.647-25.145l-1.251-3.413 0.455-0.114c-2.162-11.15-3.186-23.438-3.186-37.32 0-35.384 13.995-67.014 40.163-91.59 22.87-21.277 54.5-35.954 89.088-40.96 8.192-1.252 16.498-1.707 24.69-1.707 40.619 0 80.896 14.336 111.389 40.391 2.844 2.39 5.461 4.893 8.078 7.51 5.234-8.42 11.264-16.384 17.863-23.552 28.9-31.63 67.356-48.925 108.772-48.925 40.732 0 81.237 17.522 111.047 48.128 5.461 5.689 10.467 11.72 15.132 17.863 6.713-8.42 14.45-16.498 23.097-24.007 33.906-29.355 76.572-46.08 117.305-46.08 40.619 0 83.399 17.863 117.419 48.925 7.964 7.168 15.018 14.904 21.276 23.096 7.396-11.036 16.156-20.935 25.828-29.354 20.366-17.522 54.727-36.637 107.406-36.637 7.623 0 15.701 0.455 24.007 1.252 75.776 7.85 130.73 63.715 130.73 132.779 0.342 28.33-3.982 50.176-13.198 67.811M987.012 410.624c-35.385-3.64-63.716 3.3-83.74 20.594-19.001 16.27-31.062 42.439-32.086 69.973-0.114 2.845-0.683 5.689-1.479 8.306-2.503 14.791-15.474 26.055-31.061 26.055-17.408 0-31.403-13.995-31.403-31.175 0-23.097-12.743-48.014-35.044-68.38-22.186-20.367-50.062-32.427-74.638-32.427-25.258 0-53.703 11.491-75.89 30.834-18.887 16.27-30.72 35.953-33.905 55.296 0.569 4.892 0.682 9.784 0.682 14.677 0 17.18-14.108 31.175-31.402 31.175-14.336 0-26.51-9.671-30.151-22.756-1.82-3.982-2.845-8.305-2.845-12.856 0-3.3 0.114-6.6 0.455-9.9-3.3-19.455-12.857-38.115-27.42-53.133-18.09-18.546-42.098-29.127-65.878-29.127-23.324 0-45.51 10.012-62.236 28.444-16.84 18.318-26.396 43.236-26.396 68.267 0 17.18-14.109 31.175-31.403 31.175-16.953 0-30.72-13.312-31.403-30.038-0.114-1.365-0.227-2.844-0.227-4.323 0-14.677-8.761-30.493-24.007-43.69-22.984-19.684-55.069-28.673-85.789-24.122-55.865 8.306-75.776 43.236-75.776 70.77 0 9.444 0.683 17.75 1.934 24.69l5.575 16.384c0.114 0.227 0.456 0.683 0.57 0.91 3.299 5.006 5.006 10.468 5.233 16.043l48.47 141.084h818.175l75.094-169.187c0.796-3.755 2.275-7.623 4.665-11.037 0.227-0.455 0.569-0.91 0.796-1.365l1.365-2.958 0.114 0.113c3.869-8.42 5.69-21.048 5.69-37.66-0.342-30.379-23.553-65.308-74.64-70.656m16.612-150.756v9.558h-0.113l-0.455 21.731c-48.925-0.91-93.184 20.253-115.371 32.882-19.456 11.15-44.032 10.126-62.464-2.617-44.715-30.606-88.747-43.122-130.958-36.75-35.499 5.348-62.01 22.756-74.752 32.882-19.684 15.474-46.99 16.839-68.153 3.072-96.256-62.35-170.326-28.33-205.824-2.617-21.163 15.474-50.404 14.791-71.111-1.82-31.29-24.918-92.16-28.673-112.868-27.762l-0.114-2.39h-3.868l-2.617-362.154c-0.114-13.881 5.234-26.852 15.019-36.637S192.843-128 206.724-128h745.13c28.559 0 51.77 23.097 51.77 51.428V228.58h0.568l-0.569 31.288M217.988-65.764l2.048 296.05c37.774 6.144 68.38 17.863 91.022 35.158 24.576-17.408 71.453-43.008 132.893-43.008 40.732 0 87.836 11.264 139.15 43.918 21.731-16.726 56.32-36.864 101.945-43.69 10.353-1.48 20.821-2.276 31.175-2.276 47.559 0 95.46 16.042 142.677 48.014 18.205-10.126 47.104-24.121 82.034-32.427v-301.739H217.988"  horiz-adv-x="1242" />

    
    <glyph glyph-name="shipinbofangyingpian" unicode="&#58921;" d="M832 768H128C57.344 768 0 710.656 0 640v-576c0-70.656 57.344-128 128-128h704c70.656 0 128 57.344 128 128V640c0 70.656-57.344 128-128 128z m64-704c0-35.392-28.608-64-64-64H128c-35.392 0-64 28.608-64 64V640c0 35.392 28.608 64 64 64h704c35.392 0 64-28.608 64-64v-576zM368.448 571.456c-9.856 5.888-22.208 6.016-32.256 0.448C326.208 566.208 320 555.52 320 544v-384c0-11.584 6.208-22.144 16.192-27.904A32.353 32.353 0 0 1 352 128c5.696 0 11.392 1.472 16.448 4.544l320.064 192C698.048 330.304 704 340.736 704 352s-5.952 21.632-15.488 27.456l-320.064 192zM384 216.512V487.488L609.792 352 384 216.512z"  horiz-adv-x="1024" />

    
    <glyph glyph-name="shangxiajiantouhover1" unicode="&#58922;" d="M809.353 234.643L512-62.71 214.648 234.643zM809.353 533.357L512 830.709 214.648 533.357z"  horiz-adv-x="1024" />

    
    <glyph glyph-name="shoucang" unicode="&#58923;" d="M1030.812 500.046c-11.286 32.011-39.714 55.051-74.196 60.127l-243.222 35.64L607.766 811.831c-15.27 31.276-48.261 51.489-84.057 51.489-35.706 0-68.652-20.213-83.968-51.49L334.07 595.79l-243.2-35.684c-34.504-4.964-62.954-27.982-74.24-60.171-11.264-32.501-2.872-67.807 21.882-92.138l178.51-175.638-41.405-243.378c-5.81-33.926 9.283-68.72 38.556-88.688 28.627-19.255 67.005-21.37 97.836-5.164l211.746 112.395 211.879-112.418c13.712-7.234 29.095-11.063 44.521-11.063 19.011 0 37.421 5.61 53.337 16.317 29.14 19.879 44.21 54.65 38.4 88.576l-41.382 243.4 178.532 175.639c24.71 24.375 33.102 59.681 21.77 92.27z m-53.048-60.505L782.67 247.585l45.279-266.329c2.938-17.096-4.586-34.059-19.479-44.232-15.248-10.24-35.817-11.33-52.046-2.783L523.731 57.722 291.194-65.714c-16.406-8.637-36.997-7.48-52.045 2.671-15.049 10.262-22.573 27.248-19.635 44.344l45.301 266.284L69.743 439.541c-12.377 12.154-16.606 29.718-11.063 45.724 5.765 16.384 20.524 28.182 38.622 30.786l266.485 39.113 115.98 237.123c7.88 16.116 25.154 26.535 43.987 26.535 18.9 0 36.174-10.396 44.054-26.513l115.957-237.123 266.418-39.023c18.076-2.672 32.902-14.514 38.645-30.81 5.543-16.094 1.313-33.635-11.064-45.812zM520.77 507.147c-45.59 0-82.32-13.913-109.122-41.316-44.744-45.746-43.787-112.195-43.72-115.022 0.267-12.11 10.173-21.727 22.238-21.727h0.423c12.266 0.223 22.016 10.374 21.838 22.64 0 0.512-0.4 51.066 31.254 83.189 18.098 18.387 44.055 27.692 77.068 27.692 12.288 0 22.26 9.973 22.26 22.261s-9.95 22.283-22.238 22.283z"  horiz-adv-x="1036" />

    
    <glyph glyph-name="shuzi" unicode="&#58924;" d="M512 860.57C248.832 860.57 35.43 647.168 35.43 384S248.832-92.57 512-92.57 988.57 120.832 988.57 384 775.168 860.57 512 860.57z m66.355-805.07H497.46V605.595c-59.187-54.272-146.637-74.138-146.637-74.138v78.643C466.534 643.891 547.84 712.5 547.84 712.5h30.515v-656.998z"  horiz-adv-x="1024" />

    
    <glyph glyph-name="shuoming" unicode="&#58926;" d="M512 837.275C261.662 837.275 58.725 634.337 58.725 384S261.663-69.275 512-69.275 965.275 133.663 965.275 384 762.337 837.275 512 837.275z m0-849.788c-218.988 0-396.512 177.525-396.512 396.513S293.012 780.512 512 780.512 908.513 602.988 908.513 384 730.986-12.513 512-12.513z m-88.238 492.676s14.213 87.5 101.713 77.65 67.813-75.463 59.063-88.588c-8.75-21.875-89.688-74.375-102.813-106.088S469.7 272.364 469.7 272.364h78.75s-4.375 62.337 39.375 88.587 118.125 102.813 85.313 176.088c-52.5 84.212-103.9 92.962-170.625 90.775s-136.713-35-159.688-136.713c54.688-7.65 80.938-10.938 80.938-10.938zM468.6 242.825h82.025v-89.675H468.6v89.675z"  horiz-adv-x="1024" />

    
    <glyph glyph-name="sousuo" unicode="&#58927;" d="M388.779 118.5A389.177 389.177 0 0 0 0 507.22 389.177 389.177 0 0 0 388.779 896 389.12 389.12 0 0 0 777.5 507.221h-71.11A318.009 318.009 0 0 1 388.778 824.89 318.009 318.009 0 0 1 71.11 507.22a318.009 318.009 0 0 1 317.668-317.61 315.221 315.221 0 0 1 224.54 93.07l50.347-50.347A386.39 386.39 0 0 0 388.779 118.5M950.727-104.96l-362.61 362.44 50.233 50.346 362.61-362.382z"  horiz-adv-x="1024" />

    
    <glyph glyph-name="wangge" unicode="&#58929;" d="M733.286 16.3H296.845c-82.487 0-149.364 67.108-149.364 149.364V602.337c0 82.487 67.108 149.364 149.364 149.364h436.441c82.487 0 149.364-67.108 149.364-149.364v-436.441c0-82.487-67.108-149.597-149.364-149.597zM296.845 709.058c-58.953 0-106.721-47.769-106.721-106.721v-436.441c0-58.953 47.769-106.721 106.721-106.721h436.441c58.953 0 106.721 47.769 106.721 106.721V602.337c0 58.953-47.769 106.721-106.721 106.721H296.845z m38.914-604.445a21.382 21.382 0 0 0-21.438 21.438V608.163c0 11.884 9.554 21.438 21.438 21.438s21.438-9.554 21.438-21.438v-482.112c-0.234-11.884-9.554-21.438-21.438-21.438z m358.146 0a21.382 21.382 0 0 0-21.438 21.438V608.163c0 11.884 9.554 21.438 21.438 21.438s21.438-9.554 21.438-21.438v-482.112a21.382 21.382 0 0 0-21.438-21.438z m-178.957 0a21.382 21.382 0 0 0-21.438 21.438V608.163c0 11.884 9.554 21.438 21.438 21.438s21.438-9.554 21.438-21.438v-482.112c-0.234-11.884-9.787-21.438-21.438-21.438z m240.94 437.606H273.776c-11.884 0-21.438 9.554-21.438 21.438s9.554 21.438 21.438 21.438h482.112c11.884 0 21.438-9.554 21.438-21.438s-9.787-21.438-21.438-21.438z m0-358.148H273.776c-11.884 0-21.438 9.554-21.438 21.438s9.554 21.438 21.438 21.438h482.112c11.884 0 21.438-9.554 21.438-21.438s-9.787-21.438-21.438-21.438z m0 178.957H273.776c-11.884 0-21.438 9.554-21.438 21.438s9.554 21.438 21.438 21.438h482.112c11.884 0 21.438-9.554 21.438-21.438s-9.787-21.438-21.438-21.438z"  horiz-adv-x="1024" />

    
    <glyph glyph-name="suoyoushangpin" unicode="&#58930;" d="M319.351 323.828h-127.54c-70.434 0-127.54-57.107-127.54-127.541v-127.541c0-70.434 57.106-127.54 127.54-127.54h127.541c70.435 0 127.541 57.106 127.541 127.54v127.54c0 70.435-57.107 127.542-127.542 127.542z m63.77-255.081c0-35.217-28.553-63.77-63.77-63.77h-127.54c-35.216 0-63.77 28.553-63.77 63.77v127.54c0 35.217 28.554 63.77 63.77 63.77h127.541c35.217 0 63.77-28.553 63.77-63.77v-127.54zM829.514 833.99h-127.54c-70.434 0-127.541-57.107-127.541-127.541v-127.54c0-70.435 57.107-127.542 127.54-127.542h127.541c70.435 0 127.541 57.107 127.541 127.541v127.54c0 70.435-57.106 127.542-127.54 127.542z m63.77-255.082c0-35.217-28.552-63.77-63.77-63.77h-127.54c-35.217 0-63.77 28.553-63.77 63.77v127.54c0 35.218 28.553 63.771 63.77 63.771h127.54c35.218 0 63.77-28.553 63.77-63.77v-127.54zM319.352 833.99h-127.54c-70.434 0-127.54-57.107-127.54-127.541v-127.54c0-70.435 57.106-127.542 127.54-127.542h127.541c70.435 0 127.541 57.107 127.541 127.541v127.54c0 70.435-57.107 127.542-127.542 127.542z m63.77-255.082c0-35.217-28.553-63.77-63.77-63.77h-127.54c-35.216 0-63.77 28.553-63.77 63.77v127.54c0 35.218 28.554 63.771 63.77 63.771h127.541c35.217 0 63.77-28.553 63.77-63.77v-127.54z m446.392-255.08h-127.54c-70.434 0-127.541-57.107-127.541-127.541v-127.541c0-70.434 57.107-127.54 127.54-127.54h127.541c70.435 0 127.541 57.106 127.541 127.54v127.54c0 70.435-57.106 127.542-127.54 127.542z m63.77-255.081c0-35.217-28.552-63.77-63.77-63.77h-127.54c-35.217 0-63.77 28.553-63.77 63.77v127.54c0 35.217 28.553 63.77 63.77 63.77h127.54c35.218 0 63.77-28.553 63.77-63.77v-127.54z"  horiz-adv-x="1024" />

    
    <glyph glyph-name="xiazai1" unicode="&#58936;" d="M512 13.211c204.781 0 370.789 166.008 370.789 370.789S716.781 754.789 512 754.789c-204.781 0-370.789-166.008-370.789-370.789 0-204.781 166.008-370.789 370.789-370.789z m22.281 256.436l105.622 121.305c2.81 3.105 7.362 3.105 10.172 0l22.04-24.367c2.809-3.106 2.809-8.14 0-11.245L539.15 202.634c-0.134-0.177-1.16-1.33-1.16-1.33l-20.507-23.551c-1.505-1.663-3.508-2.426-5.478-2.309-1.973-0.122-3.982 0.641-5.49 2.308l-20.548 23.601c-0.835 0.922-0.964 1.088-1.09 1.253L351.888 355.341c-2.811 3.106-2.811 8.14 0 11.245l22.039 24.367c2.809 3.106 7.361 3.106 10.171 0L488.73 270.787V538.27c0 4.393 3.22 7.953 7.192 7.953h31.168c3.972 0 7.192-3.56 7.192-7.953v-268.622z"  horiz-adv-x="1024" />

    
    <glyph glyph-name="xiazai2" unicode="&#58945;" d="M511.998 831.434c-247.284 0-447.746-200.323-447.746-447.432s200.462-447.436 447.746-447.436c247.286 0 447.75 200.327 447.75 447.436S759.284 831.434 511.998 831.434z m0.013-850.11c-222.556 0-402.97 180.294-402.97 402.693s180.414 402.69 402.97 402.69c222.558 0 402.976-180.29 402.976-402.689S734.57-18.676 512.011-18.676zM702.785 373.09c-4.867 4.82-12.778 4.82-17.643 0L547.024 236.182V654.468c0 6.828-5.617 12.369-12.479 12.369h-24.954c-6.888 0-12.476-5.541-12.476-12.369v-423.65L361.465 365.29c-4.715 4.681-12.402 4.681-17.143 0l-17.141-17.015c-4.742-4.676-4.742-12.29 0-16.996l180.813-179.278c3.769-3.737 9.382-4.355 13.926-2.126 4.118-0.971 8.558-0.104 11.753 3.063l186.755 185.17c4.865 4.824 4.865 12.664 0 17.485l-17.643 17.498z"  horiz-adv-x="1024" />

    
    <glyph glyph-name="weixin1" unicode="&#58946;" d="M512 896a512 512 0 1 1 0-1024A512 512 0 0 1 512 896z m0-950.857a438.857 438.857 0 1 0 0 877.714 438.857 438.857 0 0 0 0-877.714z m103.497 539.94c6.73 0 13.385-0.512 19.968-1.316-17.92 89.673-107.154 156.306-208.969 156.306-113.883 0-207.14-83.383-207.14-189.22 0-61.075 31.012-111.324 82.87-150.236l-20.7-66.999 72.412 38.985c25.893-5.485 46.665-11.19 72.558-11.19 6.51 0 12.946 0.365 19.31 0.877a175.323 175.323 0 0 0 169.691 222.793z m-111.323 60.343c15.58 0 25.892-11.044 25.892-27.794 0-16.677-10.313-27.867-25.892-27.867-15.507 0-31.086 11.19-31.086 27.867 0 16.823 15.58 27.794 31.086 27.794z m-144.97-55.588c-15.506 0-31.231 11.19-31.231 27.867 0 16.75 15.652 27.794 31.232 27.794 15.506 0 25.819-11.044 25.819-27.794s-10.313-27.867-25.82-27.867z m269.459-16.677c-98.524 0-176.128-72.484-176.128-161.426 0-89.088 77.604-161.5 176.128-161.5 20.626 0 41.399 5.632 62.171 11.191L747.666 128l-15.58 55.589c41.473 33.499 72.485 77.897 72.485 128.073 0 88.941-82.87 161.5-175.908 161.5zM571.538 339.53c-10.313 0-20.7 11.045-20.7 22.236-0.072 11.117 10.387 22.235 20.7 22.235 15.653 0 25.893-11.19 25.893-22.235 0-11.264-10.24-22.236-25.893-22.236z m113.884 0c-10.24 0-20.553 11.045-20.553 22.236 0 11.117 10.313 22.235 20.553 22.235 15.506 0 25.892-11.19 25.892-22.235 0.073-11.264-10.386-22.236-25.892-22.236z"  horiz-adv-x="1024" />

    
    <glyph glyph-name="xiaoxi" unicode="&#58947;" d="M270.73 45.615C342.164 5.605 425.275-16 512-16c246.968 0 448 174.972 448 392S758.968 768 512 768 64 593.028 64 376c0-80.612 27.866-157.534 78.926-222.32l-30.127-150.54c-2.547-12.725 10.317-23.028 22.178-17.765l135.754 60.24z m-96.807 119.977a16.053 16.053 0 0 1-1.94 3.003C122.775 228.88 96 300.715 96 376c0 198.29 185.794 360 416 360s416-161.71 416-360-185.794-360-416-360c-83.463 0-163.195 21.315-231.023 60.605-4.451 3.154-10.404 3.95-15.752 1.576l-143.227-63.556 22.179-17.765 31.548 157.644c0.79 3.949 0.054 7.849-1.802 11.088z"  horiz-adv-x="1024" />

    
    <glyph glyph-name="xiangmujianshe" unicode="&#58948;" d="M848.175 450.324v-353.27c0-41.21-33.442-74.677-74.753-74.677H549.314v-49.802c0-72.96-33.442-99.629-74.678-99.629l-273.91 99.629c-41.31 0-74.752 33.442-74.752 74.752l2.266 32.446c-1.345 5.603-2.266 11.305-2.266 17.256v672.4c0 41.21 33.442 74.678 74.752 74.678H823.2c41.31 0 74.753-33.442 74.753-74.678v-249.034c0.05-32.471-20.743-59.762-49.777-70.071zM200.75 47.327l273.91-99.628V669.825l-273.91 99.604v-722.102zM823.25 744.478c0 13.845-11.13 24.95-24.851 24.95H406.059l68.602-24.95c41.211 0 75.475-52.616 74.678-99.529v-547.895h224.108V520.395h24.95c13.746 0 24.852 11.205 24.852 24.95V744.478z m-248.96-99.529h99.63c13.744 0 24.85-11.205 24.85-24.95 0-13.746-11.13-24.852-24.85-24.852h-99.63c-13.745 0-24.95 11.13-24.95 24.851 0 13.746 11.205 24.951 24.95 24.951z m0-124.554h99.63c13.744 0 24.85-11.106 24.85-24.851 0-13.746-11.13-24.951-24.85-24.951h-99.63c-13.745 0-24.95 11.205-24.95 24.95 0 13.721 11.205 24.852 24.95 24.852z m0-124.48h99.63c13.744 0 24.85-11.106 24.85-24.95 0-13.746-11.13-24.852-24.85-24.852h-99.63c-13.745 0-24.95 11.131-24.95 24.851 0 13.82 11.205 24.951 24.95 24.951z m0-124.48h99.63c13.744 0 24.85-11.205 24.85-24.95 0-13.746-11.13-24.851-24.85-24.851h-99.63c-13.745 0-24.95 11.105-24.95 24.85 0 13.746 11.205 24.951 24.95 24.951z"  horiz-adv-x="1024" />

    
    </font>
</defs>
</svg>
